mtllib material.mtl
o Default
v 2 4 0
v 6 6 0
v 2 6 0
v 6 4 0
v 0 6 0
v 2 8 0
v 0 8 0
v 4 8 0
v 4 6 0
v 6 8 0
v 8 8 0
v 8 6 0
v 6 0 0
v 8 2 0
v 6 2 0
v 8 0 0
v 8 4 0
v 0 4 0
v 0 2 0
v 2 2 0
v 0 0 0
v 2 0 0
v 3 4 0
v 3 0 0
v 5 0 0
v 5 4 0
v 3 2 -2
v 3 2 0
v 3 0 -2
v 3 4 -2
v 5 4 -2
v 5 0 -2
v 5 2 0
v 5 2 -2
v 2 0 -2
v 0 2 -2
v 2 2 -2
v 0 0 -2
v 0 4 -2
v 2 4 -2
v 8 0 -2
v 6 2 -2
v 8 2 -2
v 6 0 -2
v 6 4 -2
v 8 4 -2
v 6 6 -2
v 8 6 -2
v 6 8 -2
v 8 8 -2
v 4 8 -2
v 4 6 -2
v 2 8 -2
v 2 6 -2
v 0 8 -2
v 0 6 -2
vt 0.6000000238418579 0.800000011920929
vt 0.800000011920929 1
vt 0.6000000238418579 1
vt 0.800000011920929 0.800000011920929
vt 0 0.4000000059604645
vt 0.10000000149011612 0.6000000238418579
vt 0 0.6000000238418579
vt 0.10000000149011612 0.4000000059604645
vt 0.6000000238418579 0.4000000059604645
vt 0.6500000357627869 0.800000011920929
vt 0.6500000357627869 0.4000000059604645
vt 0.75 0.4000000059604645
vt 0.75 0.800000011920929
vt 0.800000011920929 0.4000000059604645
vt 0 0.800000011920929
vt 0.10000000149011612 1
vt 0 1
vt 0.10000000149011612 0.800000011920929
vn 0 0 1
vn 1 0 0
vn 0 -1 0
vn -1 0 0
vn 0 1 0
vn 0 0 -1
g Factory_Door_Open
usemtl 0
f 1/1/1 2/2/1 3/3/1
f 1/1/1 4/4/1 2/2/1
f 5/5/1 6/6/1 7/7/1
f 5/5/1 3/8/1 6/6/1
f 3/5/1 8/6/1 6/7/1
f 3/5/1 9/8/1 8/6/1
f 9/5/1 10/6/1 8/7/1
f 9/5/1 2/8/1 10/6/1
f 2/5/1 11/6/1 10/7/1
f 2/5/1 12/8/1 11/6/1
f 13/5/1 14/6/1 15/7/1
f 13/5/1 16/8/1 14/6/1
f 15/5/1 17/6/1 4/7/1
f 15/5/1 14/8/1 17/6/1
f 4/5/1 12/6/1 2/7/1
f 4/5/1 17/8/1 12/6/1
f 18/5/1 3/6/1 5/7/1
f 18/5/1 1/8/1 3/6/1
f 19/5/1 1/6/1 18/7/1
f 19/5/1 20/8/1 1/6/1
f 21/5/1 20/6/1 19/7/1
f 21/5/1 22/8/1 20/6/1
f 22/9/1 23/10/1 1/1/1
f 22/9/1 24/11/1 23/10/1
f 25/12/1 4/4/1 26/13/1
f 25/12/1 13/14/1 4/4/1
f 24/5/2 27/6/2 28/7/2
f 24/5/2 29/8/2 27/6/2
f 28/5/2 30/6/2 23/7/2
f 28/5/2 27/8/2 30/6/2
f 30/5/3 26/6/3 23/7/3
f 30/5/3 31/8/3 26/6/3
f 32/5/4 33/6/4 34/7/4
f 32/5/4 25/8/4 33/6/4
f 34/5/4 26/6/4 31/7/4
f 34/5/4 33/8/4 26/6/4
f 24/15/5 32/16/5 29/17/5
f 24/15/5 25/18/5 32/16/5
f 35/5/6 36/6/6 37/7/6
f 35/5/6 38/8/6 36/6/6
f 37/5/6 39/6/6 40/7/6
f 37/5/6 36/8/6 39/6/6
f 41/5/6 42/6/6 43/7/6
f 41/5/6 44/8/6 42/6/6
f 43/5/6 45/6/6 46/7/6
f 43/5/6 42/8/6 45/6/6
f 46/5/6 47/6/6 48/7/6
f 46/5/6 45/8/6 47/6/6
f 48/5/6 49/6/6 50/7/6
f 48/5/6 47/8/6 49/6/6
f 47/5/6 51/6/6 49/7/6
f 47/5/6 52/8/6 51/6/6
f 52/5/6 53/6/6 51/7/6
f 52/5/6 54/8/6 53/6/6
f 54/5/6 55/6/6 53/7/6
f 54/5/6 56/8/6 55/6/6
f 40/5/6 56/6/6 54/7/6
f 40/5/6 39/8/6 56/6/6
f 45/1/6 54/2/6 47/3/6
f 45/1/6 40/4/6 54/2/6
f 44/9/6 31/10/6 45/1/6
f 44/9/6 32/11/6 31/10/6
f 29/12/6 40/4/6 30/13/6
f 29/12/6 35/14/6 40/4/6
