mtllib material.mtl
o Default
v 6 4 0
v 8 6 0
v 6 6 0
v 8 4 0
v 6 2 0
v 8 2 0
v 0 2 0
v 4 8 0
v 0 8 0
v 4 2 0
v 0 0 0
v 2 2 0
v 2 0 0
v 4 0 0
v 6 0 0
v 8 0 0
v 4 4 0
v 4 6 0
v 6 8 0
v 8 8 0
vt 0 0.4000000059604645
vt 0.10000000149011612 0.6000000238418579
vt 0 0.6000000238418579
vt 0.10000000149011612 0.4000000059604645
vt 0.20000000298023224 0
vt 0.4000000059604645 0.6000000238418579
vt 0.20000000298023224 0.6000000238418579
vt 0.4000000059604645 0
vn 0 0 1
g Factory_Window_Left
usemtl 0
f 1/1/1 2/2/1 3/3/1
f 1/1/1 4/4/1 2/2/1
f 5/1/1 4/2/1 1/3/1
f 5/1/1 6/4/1 4/2/1
f 7/5/1 8/6/1 9/7/1
f 7/5/1 10/8/1 8/6/1
f 11/1/1 12/2/1 7/3/1
f 11/1/1 13/4/1 12/2/1
f 13/1/1 10/2/1 12/3/1
f 13/1/1 14/4/1 10/2/1
f 15/1/1 6/2/1 5/3/1
f 15/1/1 16/4/1 6/2/1
f 14/1/1 5/2/1 10/3/1
f 14/1/1 15/4/1 5/2/1
f 10/1/1 1/2/1 17/3/1
f 10/1/1 5/4/1 1/2/1
f 17/1/1 3/2/1 18/3/1
f 17/1/1 1/4/1 3/2/1
f 18/1/1 19/2/1 8/3/1
f 18/1/1 3/4/1 19/2/1
f 3/1/1 20/2/1 19/3/1
f 3/1/1 2/4/1 20/2/1
