mtllib material.mtl
o Default
v 16 -4 4
v 20 0 8
v 20 -4 4
v 16 0 8
v 24 0 4
v 24 0 8
v 16 -8 0
v 20 -4 0
v 24 0 0
v 16 -3.9906249046325684 4
v 20 -3.9906249046325684 4
v 16 -7.990624904632568 0
v 20 -3.9906249046325684 0
v 24 0.00937509536743164 0
v 24 0.00937509536743164 4
v 20 0.00937509536743164 8
v 24 0.00937509536743164 8
v 16 0.00937509536743164 8
vt 0 0.6000000238418579
vt 0.20000000298023224 1
vt 0 1
vt 0.20000000298023224 0.6000000238418579
vt 0.4000000059604645 0.6000000238418579
vt 0.4000000059604645 1
vn 0 0.70710678 -0.70710678
vn -0.70710678 0.70710678 0
g Factory_InnerRamp_4x4x4
usemtl 0
f 1/1/1 2/2/1 3/3/1
f 1/1/1 4/4/1 2/2/1
f 5/1/2 3/4/2 6/3/2
f 3/4/1 2/2/1 6/3/1
f 3/1/1 7/2/1 1/3/1
f 3/1/2 8/4/2 7/2/2
f 3/1/2 9/2/2 8/3/2
f 3/1/2 5/4/2 9/2/2
f 10/4/1 11/5/1 12/2/1
f 11/5/2 13/6/2 12/2/2
f 11/4/2 14/6/2 13/2/2
f 11/4/2 15/5/2 14/6/2
f 16/4/1 17/5/1 11/2/1
f 17/5/2 15/6/2 11/2/2
f 18/4/1 11/6/1 10/2/1
f 18/4/1 16/5/1 11/6/1
