mtllib material.mtl
o Default
v -8 -8 4
v -8 -8 8
v -4 -6 4
v -4 -6 8
v 0 -6 4
v 0 -4 8
v -8 -8 0
v -4 -8 0
v 0 -8 0
v -8 -7.990624904632568 4
v -4 -5.990624904632568 4
v -8 -7.990624904632568 0
v -4 -7.990624904632568 0
v 0 -7.990624904632568 0
v 0 -5.990624904632568 4
v -4 -5.990624904632568 8
v 0 -3.9906249046325684 8
v -8 -7.990624904632568 8
vt 0 0.6000000238418579
vt 0.20000000298023224 0.6000000238418579
vt 0 1
vt 0.20000000298023224 1
vt 0.4000000059604645 0.6000000238418579
vt 0.4000000059604645 1
vn -0.4472136 0.89442719 0
vn 0 0.89442719 -0.4472136
g Factory_OuterRamp_4x2x4
usemtl 0
f 1/1/1 2/2/1 3/3/1
f 2/2/1 4/4/1 3/3/1
f 5/1/2 3/2/2 6/3/2
f 3/2/1 4/4/1 6/3/1
f 3/1/1 7/4/1 1/3/1
f 3/1/2 8/2/2 7/4/2
f 3/1/2 9/4/2 8/3/2
f 3/1/2 5/2/2 9/4/2
f 10/2/1 11/5/1 12/4/1
f 11/5/2 13/6/2 12/4/2
f 11/2/2 14/6/2 13/4/2
f 11/2/2 15/5/2 14/6/2
f 16/2/1 17/5/1 11/4/1
f 17/5/2 15/6/2 11/4/2
f 18/2/1 11/6/1 10/4/1
f 18/2/1 16/5/1 11/6/1
