mtllib material.mtl
o Default
v -0.125 1 -1.6875
v -0.25 3 1.6875
v -0.25 3 -1.6875
v -0.125 1 1.6875
v -0.125 5 1.6875
v -0.125 5 -1.6875
v 0.25 0 -1.6875
v 0.25 0 1.6875
v 0 6 1.6875
v 0 6 -1.6875
vt 0.015625 0.5
vt 0.18437500298023224 0.699999988079071
vt 0.015625 0.699999988079071
vt 0.18437500298023224 0.5
vt 0.18437500298023224 0.8999999761581421
vt 0.015625 0.8999999761581421
vt 0.015625 0.4000000059604645
vt 0.18437500298023224 0.4000000059604645
vt 0.18437500298023224 1
vt 0.015625 1
vn -0.99805258 -0.06237829 0
vn -0.99805258 0.06237829 0
vn -0.93632918 -0.35112344 0
vn -0.99227788 0.12403473 0
g Label
usemtl 0
f 1/1/1 2/2/1 3/3/1
f 1/1/1 4/4/1 2/2/1
f 3/3/2 5/5/2 6/6/2
f 3/3/2 2/2/2 5/5/2
f 7/7/3 4/4/3 1/1/3
f 7/7/3 8/8/3 4/4/3
f 6/6/4 9/9/4 10/10/4
f 6/6/4 5/5/4 9/9/4
