mtllib material.mtl
o Default
v -8.6875 5.3125 0.5625
v -8.6875 5.875 0.875
v -8.6875 5.875 1.4210854715202004e-14
v -8.6875 6.4375 0.5625
v -8.6875 6.75 1.4210854715202004e-14
v -8.6875 6.4375 -0.5625
v -8.6875 5 1.4210854715202004e-14
v -8.6875 5.3125 -0.5625
v -8.6875 5.875 -0.875
v -3.5625 7.4375 -0.5625
v -3.5625 6.875 -0.875
v -3.5625 7.75 0
v -3.5625 6.3125 -0.5625
v -3.5625 6 0
v -3.5625 7.4375 0.5625
v -3.5625 6.875 0.875
v -3.5625 6.3125 0.5625
v 7.6875 2.8125 -0.5625
v 7.6875 3.375 -0.875
v 7.6875 3.375 0
v 7.6875 3.9375 -0.5625
v 7.6875 4.25 0
v 7.6875 3.9375 0.5625
v 7.6875 2.5 0
v 7.6875 2.8125 0.5625
v 7.6875 3.375 0.875
v 2.5625 2.9375 0.5625
v 2.5625 2.375 0.875
v 2.5625 3.25 0
v 2.5625 1.8125 0.5625
v 2.5625 1.5 0
v 2.5625 2.9375 -0.5625
v 2.5625 2.375 -0.875
v 2.5625 1.8125 -0.5625
v 3.5 5.5 3.5
v 5.5 6 1.5
v 3.5 5.5 1.5
v 5.5 6 3.5
v 5.5 4 3
v 5.5 4 1
v 3.5 3.5 3
v 3.5 3.5 1
v 5.5 4 -1
v 3.5 3.5 -1
v 3.5 1.5 2.5
v 5.5 2 2.5
v 3.5 1.5 1
v 5.5 2 1
v 3.5 1.5 -1
v 5.5 2 -1
v 29.1875 6.262499809265137 -0.5625
v 29.1875 6.824999809265137 -0.875
v 29.1875 6.824999809265137 0
v 29.1875 7.387500286102295 -0.5625
v 29.1875 7.699999809265137 0
v 29.1875 7.387500286102295 0.5625
v 29.1875 5.949999809265137 0
v 29.1875 6.262499809265137 0.5625
v 29.1875 6.824999809265137 0.875
v -2.9375 7.387500286102295 0.5625
v -2.9375 6.824999809265137 0.875
v -2.9375 7.699999809265137 0
v -2.9375 6.262499809265137 0.5625
v -2.9375 5.949999809265137 0
v -2.9375 7.387500286102295 -0.5625
v -2.9375 6.824999809265137 -0.875
v -2.9375 6.262499809265137 -0.5625
v 21.43181800842285 4.62045431137085 -0.3068199157714844
v 21.43181800842285 4.927272796630859 -0.47727203369140625
v 21.43181800842285 4.927272796630859 8.127905459787144e-9
v 21.43181800842285 5.234090805053711 -0.3068199157714844
v 21.43181800842285 5.404545307159424 8.127905459787144e-9
v 21.43181800842285 5.234090805053711 0.306819885969162
v 21.43181800842285 4.450000286102295 8.127905459787144e-9
v 21.43181800842285 4.62045431137085 0.306819885969162
v 21.43181800842285 4.927272796630859 0.47727200388908386
v 21.375 5.25 0.2499999850988388
v -2.965909004211426 5.234090805053711 0.30681970715522766
v -2.965909004211426 4.927272796630859 0.47727182507514954
v -2.965909004211426 5.404545307159424 -2.1674415506822697e-7
v -2.965909004211426 4.62045431137085 0.30681970715522766
v -2.965909004211426 4.450000286102295 -2.1674415506822697e-7
v -2.965909004211426 5.234090805053711 -0.30681973695755005
v -2.965909004211426 4.927272796630859 -0.4772718548774719
v -2.965909004211426 4.62045431137085 -0.30681973695755005
v 23 4 1
v 23 6 -1
v 23 6 1
v 23 4 -1
v 21 4 -1
v 21 4 1
v -2 6 -1
v -5 8 -1
v -3 8 -1
v -4 6 -1
v -4 6 1
v -3 8 1
v -5 8 1
v -2 6 1
v 21 6 1
v -4 2 -1
v -4 4 1
v -4 4 -1
v -4 2 1
v -2 4 1
v -2 4 -1
v 21 6 -1
v 1 2 -1
v 0 4 -1
v 1 4 -1
v 0 2 -1
v -2 2 1
v 3 6 -1
v 2 8 -1
v 4 8 -1
v 1 6 -1
v 1 6 1
v 4 8 1
v 2 8 1
v 3 6 1
v 0 2 1
v 1 4 1
v 0 4 1
v 1 2 1
v -2 2 -1
v 3 4 1
v 3 4 -1
v 2 0 1
v 3 2 -1
v 3 2 1
v 2 0 -1
v 8 2 -1
v 6 2 1
v 6 2 -1
v 8 2 1
v 6 4 -1
v 8 4 -1
v 8 6 -1
v 7 8 -1
v 9 8 -1
v 6 6 -1
v 6 6 1
v 9 8 1
v 7 8 1
v 8 6 1
v 8 4 1
v 6 4 1
v 13 4 -1
v 11 6 -1
v 13 6 -1
v 11 4 -1
v 12 8 -1
v 14 8 -1
v 12 8 1
v 11 6 1
v 14 8 1
v 13 6 1
v 11 4 1
v 13 4 1
v 18 4 -1
v 16 6 -1
v 18 6 -1
v 16 4 -1
v 17 8 -1
v 19 8 -1
v 17 8 1
v 16 6 1
v 19 8 1
v 18 6 1
v 16 4 1
v 18 4 1
v 22 8 -1
v 24 8 -1
v 22 8 1
v 24 8 1
v 0 0 1
v -1 -2 1
v 1 -2 1
v 0 0 -1
v -1 -2 -1
v 1 -2 -1
v -7.5 2.5 1
v -7 5 -1
v -7 5 1
v -7.5 2.5 -1
v -9.5 2.5 -1
v -9.5 2.5 1
v -9 5 1
v -9 5 -1
v -10 7 -1
v -8 7 -1
v -10 7 1
v -8 7 1
vt 0.8500000238418579 0.20000000298023224
vt 0.8999999761581421 0.20000000298023224
vt 0.8500000238418579 0.30000001192092896
vt 0.8999999761581421 0.30000001192092896
vt 0.8999999761581421 0.4000000059604645
vt 0.8500000238418579 0.4000000059604645
vt 0.800000011920929 0.20000000298023224
vt 0.800000011920929 0.30000001192092896
vt 0.800000011920929 0.4000000059604645
vt 0.9249999523162842 0
vt 0.949999988079071 0.20000000298023224
vt 0.9249999523162842 0.20000000298023224
vt 0.949999988079071 0
vt 0.8999999761581421 0
vt 0.9750000238418579 0
vt 1 0.20000000298023224
vt 0.9750000238418579 0.20000000298023224
vt 1 0
vt 0.5 0.800000011920929
vt 0.4000000059604645 0.6000000238418579
vt 0.5 0.6000000238418579
vt 0.4000000059604645 0.800000011920929
vt 0.800000011920929 0.6000000238418579
vt 0.699999988079071 0.4000000059604645
vt 0.699999988079071 0.6000000238418579
vt 0.699999988079071 0.800000011920929
vt 0.6000000238418579 0.800000011920929
vt 0.6000000238418579 0.6000000238418579
vt 0.5 0.4000000059604645
vt 0.4000000059604645 0.4000000059604645
vt 0.699999988079071 2.3841858265427618e-8
vt 0.800000011920929 0.20000001788139343
vt 0.699999988079071 0.20000001788139343
vt 0.800000011920929 2.3841858265427618e-8
vt 0.22499994933605194 0
vt 0.2499999850988388 0.20000000298023224
vt 0.22499994933605194 0.20000000298023224
vt 0.2499999850988388 0
vt 0.19999997317790985 0
vt 0.19999997317790985 0.20000000298023224
vt 0.27500003576278687 0
vt 0.30000001192092896 0.20000000298023224
vt 0.27500003576278687 0.20000000298023224
vt 0.30000001192092896 0
vt 0.25 0.20000000298023224
vt 0.25 0
vt 0.800000011920929 1
vt 0.699999988079071 1
vt 0.800000011920929 0.800000011920929
vt 0.38749998807907104 -2.9802320611338473e-9
vt 0.4375 0.20000004768371582
vt 0.38749998807907104 0.20000004768371582
vt 0.4375 -2.9802320611338473e-9
vt 0.7999999523162842 -7.450580152834618e-10
vt 0.8999999761581421 0.20000004768371582
vt 0.7999999523162842 0.20000004768371582
vt 0.8999999761581421 -7.450580152834618e-10
vt 0.30000001192092896 0.20000004768371582
vt 0.40000003576278687 -2.9802320611338473e-9
vt 0.40000003576278687 0.20000004768371582
vt 0.30000001192092896 -2.9802320611338473e-9
vt 0.3999999761581421 0.20000004768371582
vt 0.5 -7.450580152834618e-10
vt 0.5 0.20000004768371582
vt 0.3999999761581421 -7.450580152834618e-10
vt 0.5 0.20000003278255463
vt 0.6000000238418579 -1.415610295651959e-8
vt 0.6000000238418579 0.20000003278255463
vt 0.5 -1.415610295651959e-8
vt 0.5999999642372131 0.20000003278255463
vt 0.699999988079071 -1.1920929132713809e-8
vt 0.699999988079071 0.20000003278255463
vt 0.5999999642372131 -1.1920929132713809e-8
vt 0.800000011920929 -2.9802320611338473e-9
vt 0.699999988079071 0.20000004768371582
vt 0.699999988079071 -2.9802320611338473e-9
vt 0.800000011920929 0.20000004768371582
vt 0.30000001192092896 0.4000000059604645
vt 0.4000000059604645 0.20000000298023224
vn -1 0 0
vn -0.094337 0.48347712 -0.87025882
vn -0.16813896 0.86171216 -0.47872898
vn 0.16813896 -0.86171216 -0.47872898
vn 0.094337 -0.48347712 -0.87025882
vn -0.16813896 0.86171216 0.47872898
vn -0.094337 0.48347712 0.87025882
vn 0.094337 -0.48347712 0.87025882
vn 0.16813896 -0.86171216 0.47872898
vn 1 0 0
vn -0.24253563 0.9701425 0
vn 0.06052275 -0.24209101 0.96836405
vn -0.06052275 0.24209101 -0.96836405
vn 0.24253563 -0.9701425 0
vn 0 0 -1
vn 0 0.48564262 0.87415745
vn 0 0.87415759 0.48564236
vn 0 -0.87415728 0.48564293
vn 0 -0.48564293 0.87415728
vn 0 0.87415759 -0.48564236
vn 0 0.48564262 -0.87415745
vn 0 -0.48564293 -0.87415728
vn 0 -0.87415728 -0.48564293
vn 0.98485338 0.17338919 0
vn -1e-8 0.48563786 0.8741601
vn 0 0.87415847 0.48564079
vn 0 0.8741585 0.48564073
vn 0 -0.87415904 0.48563975
vn 0 -0.87415908 0.48563969
vn -1e-8 -0.48563728 0.87416042
vn 0 0.8741585 -0.48564073
vn 0 0.87415823 -0.48564122
vn -1e-8 0.48563786 -0.8741601
vn -1e-8 -0.48563728 -0.87416042
vn 0 -0.87415908 -0.48563969
vn 0 -0.8741588 -0.48564018
vn 0 -1 0
vn 0 0 1
vn -0.89442719 -0.4472136 0
vn 0 1 0
vn 0.89442719 0.4472136 0
vn -0.89442719 0.4472136 0
vn 0.89442719 -0.4472136 0
vn 0.98058068 -0.19611614 0
vn -0.98058068 0.19611614 0
g Stamper
usemtl GunTileMap_Tan
f 1/1/1 2/2/1 3/3/1
f 2/2/1 4/4/1 3/3/1
f 3/3/1 5/5/1 6/6/1
f 3/3/1 4/4/1 5/5/1
f 7/7/1 3/3/1 8/8/1
f 7/7/1 1/1/1 3/3/1
f 8/8/1 3/3/1 9/9/1
f 3/3/1 6/6/1 9/9/1
f 10/10/2 9/11/2 6/12/2
f 10/10/2 11/13/2 9/11/2
f 12/14/3 6/12/3 5/2/3
f 12/14/3 10/10/3 6/12/3
f 13/15/4 7/16/4 8/17/4
f 13/15/4 14/18/4 7/16/4
f 11/13/5 8/17/5 9/11/5
f 11/13/5 13/15/5 8/17/5
f 15/12/6 5/14/6 4/10/6
f 15/12/6 12/2/6 5/14/6
f 16/11/7 4/10/7 2/13/7
f 16/11/7 15/12/7 4/10/7
f 17/17/8 2/13/8 1/15/8
f 17/17/8 16/11/8 2/13/8
f 14/16/9 1/15/9 7/18/9
f 14/16/9 17/17/9 1/15/9
f 18/1/10 19/2/10 20/3/10
f 19/2/10 21/4/10 20/3/10
f 20/3/10 22/5/10 23/6/10
f 20/3/10 21/4/10 22/5/10
f 24/7/10 20/3/10 25/8/10
f 24/7/10 18/1/10 20/3/10
f 25/8/10 20/3/10 26/9/10
f 20/3/10 23/6/10 26/9/10
f 27/10/7 26/11/7 23/12/7
f 27/10/7 28/13/7 26/11/7
f 29/14/6 23/12/6 22/2/6
f 29/14/6 27/10/6 23/12/6
f 30/15/9 24/16/9 25/17/9
f 30/15/9 31/18/9 24/16/9
f 28/13/8 25/17/8 26/11/8
f 28/13/8 30/15/8 25/17/8
f 32/12/3 22/14/3 21/10/3
f 32/12/3 29/2/3 22/14/3
f 33/11/2 21/10/2 19/13/2
f 33/11/2 32/12/2 21/10/2
f 34/17/5 19/13/5 18/15/5
f 34/17/5 33/11/5 19/13/5
f 31/16/4 18/15/4 24/18/4
f 31/16/4 34/17/4 18/15/4
f 35/19/11 36/20/11 37/21/11
f 35/19/11 38/22/11 36/20/11
f 39/23/10 36/24/10 38/9/10
f 39/23/10 40/25/10 36/24/10
f 41/23/12 38/24/12 35/9/12
f 41/23/12 39/25/12 38/24/12
f 42/23/1 35/24/1 37/9/1
f 42/23/1 41/25/1 35/24/1
f 40/23/13 37/24/13 36/9/13
f 40/23/13 42/25/13 37/24/13
f 42/23/11 43/24/11 44/9/11
f 42/23/11 40/25/11 43/24/11
f 45/24/12 39/23/12 41/25/12
f 45/24/12 46/9/12 39/23/12
f 47/26/1 45/27/1 42/25/1
f 45/27/1 41/28/1 42/25/1
f 46/27/10 40/25/10 39/26/10
f 46/27/10 48/28/10 40/25/10
f 47/29/14 46/20/14 45/30/14
f 47/29/14 48/21/14 46/20/14
f 49/20/14 48/29/14 47/21/14
f 49/20/14 50/30/14 48/29/14
f 49/30/1 42/21/1 44/20/1
f 49/30/1 47/29/1 42/21/1
f 50/31/15 44/32/15 43/33/15
f 50/31/15 49/34/15 44/32/15
f 48/21/10 43/30/10 40/29/10
f 48/21/10 50/20/10 43/30/10
f 51/1/10 52/2/10 53/3/10
f 52/2/10 54/4/10 53/3/10
f 53/3/10 55/5/10 56/6/10
f 53/3/10 54/4/10 55/5/10
f 57/7/10 53/3/10 58/8/10
f 57/7/10 51/1/10 53/3/10
f 58/8/10 53/3/10 59/9/10
f 53/3/10 56/6/10 59/9/10
f 60/10/16 59/11/16 56/12/16
f 60/10/16 61/13/16 59/11/16
f 62/14/17 56/12/17 55/2/17
f 62/14/17 60/10/17 56/12/17
f 63/15/18 57/16/18 58/17/18
f 63/15/18 64/18/18 57/16/18
f 61/13/19 58/17/19 59/11/19
f 61/13/19 63/15/19 58/17/19
f 65/12/20 55/14/20 54/10/20
f 65/12/20 62/2/20 55/14/20
f 66/11/21 54/10/21 52/13/21
f 66/11/21 65/12/21 54/10/21
f 67/17/22 52/13/22 51/15/22
f 67/17/22 66/11/22 52/13/22
f 64/16/23 51/15/23 57/18/23
f 64/16/23 67/17/23 51/15/23
f 68/1/10 69/2/10 70/3/10
f 69/2/10 71/4/10 70/3/10
f 70/3/10 72/5/10 73/6/10
f 70/3/10 71/4/10 72/5/10
f 74/7/10 70/3/10 75/8/10
f 74/7/10 68/1/10 70/3/10
f 75/8/10 70/3/10 76/9/10
f 70/3/24 77/6/24 76/9/24
f 78/35/25 76/36/25 73/37/25
f 78/35/25 79/38/25 76/36/25
f 80/39/26 73/37/26 72/40/26
f 80/39/27 78/35/27 73/37/27
f 81/41/28 74/42/28 75/43/28
f 81/41/29 82/44/29 74/42/29
f 79/38/30 75/43/30 76/36/30
f 79/38/30 81/41/30 75/43/30
f 83/43/31 72/44/31 71/41/31
f 83/43/32 80/42/32 72/44/32
f 84/45/33 71/41/33 69/46/33
f 84/45/33 83/43/33 71/41/33
f 85/37/34 69/46/34 68/35/34
f 85/37/34 84/45/34 69/46/34
f 82/40/35 68/35/35 74/39/35
f 82/40/36 85/37/36 68/35/36
f 86/24/10 87/23/10 88/25/10
f 86/24/10 89/9/10 87/23/10
f 90/20/37 86/19/37 91/22/37
f 90/20/37 89/21/37 86/19/37
f 92/26/15 93/47/15 94/48/15
f 92/26/15 95/49/15 93/47/15
f 96/26/38 97/47/38 98/48/38
f 96/26/38 99/49/38 97/47/38
f 91/24/38 88/23/38 100/25/38
f 91/24/38 86/9/38 88/23/38
f 101/24/1 102/23/1 103/25/1
f 101/24/1 104/9/1 102/23/1
f 95/26/39 98/47/39 93/48/39
f 95/26/39 96/49/39 98/47/39
f 93/20/40 97/19/40 94/22/40
f 93/20/40 98/21/40 97/19/40
f 102/25/38 99/49/38 96/26/38
f 102/25/38 105/23/38 99/49/38
f 103/25/1 96/49/1 95/26/1
f 103/25/1 102/23/1 96/49/1
f 106/25/15 95/49/15 92/26/15
f 106/25/15 103/23/15 95/49/15
f 105/25/10 92/49/10 99/26/10
f 105/25/10 106/23/10 92/49/10
f 99/26/41 94/47/41 97/48/41
f 99/26/41 92/49/41 94/47/41
f 90/24/1 100/23/1 107/25/1
f 90/24/1 91/9/1 100/23/1
f 108/50/15 109/51/15 110/52/15
f 108/50/15 111/53/15 109/51/15
f 104/27/38 105/25/38 102/26/38
f 104/27/38 112/28/38 105/25/38
f 113/26/15 114/47/15 115/48/15
f 113/26/15 116/49/15 114/47/15
f 117/26/38 118/47/38 119/48/38
f 117/26/38 120/49/38 118/47/38
f 121/23/38 122/26/38 123/25/38
f 121/23/38 124/49/38 122/26/38
f 111/54/15 106/55/15 109/56/15
f 111/54/15 125/57/15 106/55/15
f 116/26/42 119/47/42 114/48/42
f 116/26/42 117/49/42 119/47/42
f 114/20/40 118/19/40 115/22/40
f 114/20/40 119/21/40 118/19/40
f 122/25/38 120/49/38 117/26/38
f 122/25/38 126/23/38 120/49/38
f 123/26/40 110/23/40 109/49/40
f 123/26/40 122/25/40 110/23/40
f 127/58/15 116/59/15 113/60/15
f 127/58/15 110/61/15 116/59/15
f 126/25/10 113/49/10 120/26/10
f 126/25/10 127/23/10 113/49/10
f 120/26/43 115/47/43 118/48/43
f 120/26/43 113/49/43 115/47/43
f 128/25/43 129/49/43 130/26/43
f 128/25/43 131/23/43 129/49/43
f 132/20/37 133/19/37 134/22/37
f 132/20/37 135/21/37 133/19/37
f 132/24/15 136/23/15 137/25/15
f 132/24/15 134/9/15 136/23/15
f 138/26/15 139/47/15 140/48/15
f 138/26/15 141/49/15 139/47/15
f 142/26/38 143/47/38 144/48/38
f 142/26/38 145/49/38 143/47/38
f 133/24/38 146/23/38 147/25/38
f 133/24/38 135/9/38 146/23/38
f 134/24/1 147/23/1 136/25/1
f 134/24/1 133/9/1 147/23/1
f 141/26/42 144/47/42 139/48/42
f 141/26/42 142/49/42 144/47/42
f 139/20/40 143/19/40 140/22/40
f 139/20/40 144/21/40 143/19/40
f 147/25/38 145/49/38 142/26/38
f 147/25/38 146/23/38 145/49/38
f 136/25/1 142/49/1 141/26/1
f 136/25/1 147/23/1 142/49/1
f 137/62/15 141/63/15 138/64/15
f 137/62/15 136/65/15 141/63/15
f 146/25/10 138/49/10 145/26/10
f 146/25/10 137/23/10 138/49/10
f 145/26/43 140/47/43 143/48/43
f 145/26/43 138/49/43 140/47/43
f 135/24/10 137/23/10 146/25/10
f 135/24/10 132/9/10 137/23/10
f 148/66/15 149/67/15 150/68/15
f 148/66/15 151/69/15 149/67/15
f 150/26/15 152/47/15 153/48/15
f 150/26/15 149/49/15 152/47/15
f 149/26/42 154/47/42 152/48/42
f 149/26/42 155/49/42 154/47/42
f 154/20/40 153/19/40 152/22/40
f 154/20/40 156/21/40 153/19/40
f 155/26/38 156/47/38 154/48/38
f 155/26/38 157/49/38 156/47/38
f 157/26/43 153/47/43 156/48/43
f 157/26/43 150/49/43 153/47/43
f 158/24/38 157/23/38 155/25/38
f 158/24/38 159/9/38 157/23/38
f 159/24/10 150/23/10 157/25/10
f 159/24/10 148/9/10 150/23/10
f 151/20/37 159/19/37 158/22/37
f 151/20/37 148/21/37 159/19/37
f 151/24/1 155/23/1 149/25/1
f 151/24/1 158/9/1 155/23/1
f 160/70/15 161/71/15 162/72/15
f 160/70/15 163/73/15 161/71/15
f 162/26/15 164/47/15 165/48/15
f 162/26/15 161/49/15 164/47/15
f 161/26/42 166/47/42 164/48/42
f 161/26/42 167/49/42 166/47/42
f 166/74/40 165/75/40 164/76/40
f 166/74/40 168/77/40 165/75/40
f 167/26/38 168/47/38 166/48/38
f 167/26/38 169/49/38 168/47/38
f 169/26/43 165/47/43 168/48/43
f 169/26/43 162/49/43 165/47/43
f 170/24/38 169/23/38 167/25/38
f 170/24/38 171/9/38 169/23/38
f 171/24/10 162/23/10 169/25/10
f 171/24/10 160/9/10 162/23/10
f 163/20/37 171/19/37 170/22/37
f 163/20/37 160/21/37 171/19/37
f 163/24/1 167/23/1 161/25/1
f 163/24/1 170/9/1 167/23/1
f 89/24/15 107/23/15 87/25/15
f 89/24/15 90/9/15 107/23/15
f 87/26/15 172/47/15 173/48/15
f 87/26/15 107/49/15 172/47/15
f 107/26/42 174/47/42 172/48/42
f 107/26/42 100/49/42 174/47/42
f 174/20/40 173/19/40 172/22/40
f 174/20/40 175/21/40 173/19/40
f 100/26/38 175/47/38 174/48/38
f 100/26/38 88/49/38 175/47/38
f 88/26/43 173/47/43 175/48/43
f 88/26/43 87/49/43 173/47/43
f 124/42/38 126/30/38 122/78/38
f 124/42/38 130/79/38 126/30/38
f 125/26/15 103/28/15 106/25/15
f 125/26/15 101/27/15 103/28/15
f 105/26/40 109/23/40 106/49/40
f 105/26/40 123/25/40 109/23/40
f 110/25/1 117/49/1 116/26/1
f 110/25/1 122/23/1 117/49/1
f 112/23/38 123/26/38 105/25/38
f 112/23/38 121/49/38 123/26/38
f 129/30/15 110/42/15 127/79/15
f 129/30/15 108/78/15 110/42/15
f 101/48/37 112/49/37 104/47/37
f 101/48/37 125/26/37 112/49/37
f 125/26/37 121/23/37 112/49/37
f 125/26/37 111/25/37 121/23/37
f 111/26/37 124/23/37 121/49/37
f 111/26/37 108/25/37 124/23/37
f 176/25/38 130/49/38 124/26/38
f 176/25/38 128/23/38 130/49/38
f 177/24/38 128/23/38 176/25/38
f 177/24/38 178/9/38 128/23/38
f 179/25/42 124/49/42 108/26/42
f 179/25/42 176/23/42 124/49/42
f 180/24/42 176/23/42 179/25/42
f 180/24/42 177/9/42 176/23/42
f 131/25/15 108/49/15 129/26/15
f 131/25/15 179/23/15 108/49/15
f 130/25/10 127/49/10 126/26/10
f 130/25/10 129/23/10 127/49/10
f 178/24/43 131/23/43 128/25/43
f 178/24/43 181/9/43 131/23/43
f 181/24/15 179/23/15 131/25/15
f 181/24/15 180/9/15 179/23/15
f 180/20/37 178/19/37 177/22/37
f 180/20/37 181/21/37 178/19/37
f 182/24/44 183/23/44 184/25/44
f 182/24/44 185/9/44 183/23/44
f 186/20/37 182/19/37 187/22/37
f 186/20/37 185/21/37 182/19/37
f 187/24/38 184/23/38 188/25/38
f 187/24/38 182/9/38 184/23/38
f 186/24/45 188/23/45 189/25/45
f 186/24/45 187/9/45 188/23/45
f 185/24/15 189/23/15 183/25/15
f 185/24/15 186/9/15 189/23/15
f 183/26/15 190/47/15 191/48/15
f 183/26/15 189/49/15 190/47/15
f 189/26/39 192/47/39 190/48/39
f 189/26/39 188/49/39 192/47/39
f 192/20/40 191/19/40 190/22/40
f 192/20/40 193/21/40 191/19/40
f 188/26/38 193/47/38 192/48/38
f 188/26/38 184/49/38 193/47/38
f 184/26/41 191/47/41 193/48/41
f 184/26/41 183/49/41 191/47/41
