mtllib material.mtl
o Default
v 0.0625 0 0
v 32.1875 0.3125 -0.5625
v 32.1875 0 0
v 0.0625 0.3125 -0.5625
v 32.1875 0.875 -0.875
v 0.0625 0.875 -0.875
v 32.1875 1.4375 -0.5625
v 0.0625 1.4375 -0.5625
v 32.1875 1.75 0
v 0.0625 1.75 0
v 0.0625 0.875 0.875
v 32.1875 0.3125 0.5625
v 32.1875 0.875 0.875
v 0.0625 0.3125 0.5625
v 32.1875 1.4375 0.5625
v 0.0625 1.4375 0.5625
v 32.1875 0.875 0
vt 1 0.20000000298023224
vt 0.9750000238418579 0
vt 1 0
vt 0.9750000238418579 0.20000000298023224
vt 0.949999988079071 0
vt 0.949999988079071 0.20000000298023224
vt 0.9249999523162842 0
vt 0.9249999523162842 0.20000000298023224
vt 0.8999999761581421 0
vt 0.8999999761581421 0.20000000298023224
vt 0.800000011920929 0.30000001192092896
vt 0.8500000238418579 0.30000001192092896
vt 0.800000011920929 0.4000000059604645
vt 0.8500000238418579 0.4000000059604645
vt 0.800000011920929 0.20000000298023224
vt 0.8500000238418579 0.20000000298023224
vt 0.8999999761581421 0.4000000059604645
vt 0.8999999761581421 0.30000001192092896
vn 0 -0.87415728 -0.48564293
vn 0 -0.48564293 -0.87415728
vn 0 0.48564293 -0.87415728
vn 0 0.87415728 -0.48564293
vn 0 -0.48564293 0.87415728
vn 0 -0.87415728 0.48564293
vn 0 0.87415728 0.48564293
vn 0 0.48564293 0.87415728
vn 1 0 0
g Stamper_Barrel
usemtl GunTileMap_Tan
f 1/1/1 2/2/1 3/3/1
f 1/1/1 4/4/1 2/2/1
f 4/4/2 5/5/2 2/2/2
f 4/4/2 6/6/2 5/5/2
f 6/6/3 7/7/3 5/5/3
f 6/6/3 8/8/3 7/7/3
f 8/8/4 9/9/4 7/7/4
f 8/8/4 10/10/4 9/9/4
f 11/5/5 12/4/5 13/6/5
f 11/5/5 14/2/5 12/4/5
f 14/2/6 3/1/6 12/4/6
f 14/2/6 1/3/6 3/1/6
f 10/9/7 15/8/7 9/10/7
f 10/9/7 16/7/7 15/8/7
f 16/7/8 13/6/8 15/8/8
f 16/7/8 11/5/8 13/6/8
f 12/11/9 17/12/9 13/13/9
f 17/12/9 15/14/9 13/13/9
f 3/15/9 17/12/9 12/11/9
f 3/15/9 2/16/9 17/12/9
f 17/12/9 9/17/9 15/14/9
f 17/12/9 7/18/9 9/17/9
f 2/16/9 5/10/9 17/12/9
f 5/10/9 7/18/9 17/12/9
