mtllib material.mtl
o Default
v 11 4 0
v 15 6 0
v 11 6 0
v 15 4 0
v 15 2 0
v 17 4 0
v 17 2 0
v 17 6 0
v 17 8 0
v 15 8 0
v 13 6 0
v 13 8 0
v 11 8 0
v 9 6 0
v 9 8 0
v 15 0 0
v 17 0 0
v 11 0 0
v 9 4 0
v 9 2 0
v 11 2 0
v 9 0 0
vt 0.4000000059604645 0.800000011920929
vt 0.6000000238418579 1
vt 0.4000000059604645 1
vt 0.6000000238418579 0.800000011920929
vt 0 0.4000000059604645
vt 0.10000000149011612 0.6000000238418579
vt 0 0.6000000238418579
vt 0.10000000149011612 0.4000000059604645
vt 0.4000000059604645 0.4000000059604645
vt 0.6000000238418579 0.4000000059604645
vn 0 0 1
g Factory_Door_Closed
usemtl 0
f 1/1/1 2/2/1 3/3/1
f 1/1/1 4/4/1 2/2/1
f 5/5/1 6/6/1 4/7/1
f 5/5/1 7/8/1 6/6/1
f 4/5/1 8/6/1 2/7/1
f 4/5/1 6/8/1 8/6/1
f 2/5/1 9/6/1 10/7/1
f 2/5/1 8/8/1 9/6/1
f 11/5/1 10/6/1 12/7/1
f 11/5/1 2/8/1 10/6/1
f 3/5/1 12/6/1 13/7/1
f 3/5/1 11/8/1 12/6/1
f 14/5/1 13/6/1 15/7/1
f 14/5/1 3/8/1 13/6/1
f 16/5/1 7/6/1 5/7/1
f 16/5/1 17/8/1 7/6/1
f 18/9/1 4/4/1 1/1/1
f 18/9/1 16/10/1 4/4/1
f 19/5/1 3/6/1 14/7/1
f 19/5/1 1/8/1 3/6/1
f 20/5/1 1/6/1 19/7/1
f 20/5/1 21/8/1 1/6/1
f 22/5/1 21/6/1 20/7/1
f 22/5/1 18/8/1 21/6/1
