mtllib material.mtl
o Default
v 2 2 0
v 4 4 0
v 2 4 0
v 4 2 0
v 6 4 0
v 6 2 0
v 6 6 0
v 4 6 0
v 2 6 0
v 0 4 0
v 0 6 0
v 0 2 0
v 2 8 0
v 0 8 0
v 4 8 0
v 6 8 0
v 8 8 0
v 8 6 0
v 8 4 0
v 8 2 0
v 6 0 0
v 8 0 0
v 4 0 0
v 2 0 0
v 0 0 0
vt 0 0.4000000059604645
vt 0.10000000149011612 0.6000000238418579
vt 0 0.6000000238418579
vt 0.10000000149011612 0.4000000059604645
vn 0 0 1
g Factory_Wall_4x4
usemtl 0
f 1/1/1 2/2/1 3/3/1
f 1/1/1 4/4/1 2/2/1
f 4/1/1 5/2/1 2/3/1
f 4/1/1 6/4/1 5/2/1
f 2/1/1 7/2/1 8/3/1
f 2/1/1 5/4/1 7/2/1
f 3/1/1 8/2/1 9/3/1
f 3/1/1 2/4/1 8/2/1
f 10/1/1 9/2/1 11/3/1
f 10/1/1 3/4/1 9/2/1
f 12/1/1 3/2/1 10/3/1
f 12/1/1 1/4/1 3/2/1
f 11/1/1 13/2/1 14/3/1
f 11/1/1 9/4/1 13/2/1
f 9/1/1 15/2/1 13/3/1
f 9/1/1 8/4/1 15/2/1
f 8/1/1 16/2/1 15/3/1
f 8/1/1 7/4/1 16/2/1
f 7/1/1 17/2/1 16/3/1
f 7/1/1 18/4/1 17/2/1
f 5/1/1 18/2/1 7/3/1
f 5/1/1 19/4/1 18/2/1
f 6/1/1 19/2/1 5/3/1
f 6/1/1 20/4/1 19/2/1
f 21/1/1 20/2/1 6/3/1
f 21/1/1 22/4/1 20/2/1
f 23/1/1 6/2/1 4/3/1
f 23/1/1 21/4/1 6/2/1
f 24/1/1 4/2/1 1/3/1
f 24/1/1 23/4/1 4/2/1
f 25/1/1 1/2/1 12/3/1
f 25/1/1 24/4/1 1/2/1
