mtllib material.mtl
o Default
v 0.25 0 0.125
v 0.375 2 0.125
v 0.25 2 0.125
v 0.375 0 0.125
v 0 0 0
v 0 2 0.125
v 0 2 0
v 0 0 0.125
v 0.375 2 0
v 0.375 0 0
v 0.375 0 0.5
v 0.25 2 0.5
v 0.375 2 0.5
v 0.25 0 0.5
v 0.375 0 0.5625
v 0.375 2 0.5625
v 0 0 0.5
v 0 2 0.5625
v 0 2 0.5
v 0 0 0.5625
v 0.125 0 0.5
v 0.125 2 0.5
v 0.125 0 0.125
v 0.125 2 0.125
vt 0.1875000149011612 0.4000000059604645
vt 0.19375000894069672 0.6000000238418579
vt 0.1875000149011612 0.6000000238418579
vt 0.19375000894069672 0.4000000059604645
vt 0.10000000149011612 0.4000000059604645
vt 0.10625000298023224 0.6000000238418579
vt 0.10000000149011612 0.6000000238418579
vt 0.10625000298023224 0.4000000059604645
vt 0.20000000298023224 0.6000000238418579
vt 0.20000000298023224 0.4000000059604645
vt 0.1625000238418579 0.4000000059604645
vt 0.16875003278255463 0.6000000238418579
vt 0.1625000238418579 0.6000000238418579
vt 0.16875003278255463 0.4000000059604645
vt 0.15937501192092896 0.4000000059604645
vt 0.15937501192092896 0.6000000238418579
vt 0.13750000298023224 0.4000000059604645
vt 0.1406250149011612 0.6000000238418579
vt 0.13750000298023224 0.6000000238418579
vt 0.1406250149011612 0.4000000059604645
vt 0.13125000894069672 0.4000000059604645
vt 0.13125000894069672 0.6000000238418579
vt 0.11249999701976776 0.4000000059604645
vt 0.11249999701976776 0.6000000238418579
vn 0 0 1
vn -1 0 0
vn 1 0 0
vn 0 0 -1
g Factory_Beam_1x1
usemtl 0
f 1/1/1 2/2/1 3/3/1
f 1/1/1 4/4/1 2/2/1
f 5/5/2 6/6/2 7/7/2
f 5/5/2 8/8/2 6/6/2
f 4/4/3 9/9/3 2/2/3
f 4/4/3 10/10/3 9/9/3
f 11/11/4 12/12/4 13/13/4
f 11/11/4 14/14/4 12/12/4
f 15/15/3 13/13/3 16/16/3
f 15/15/3 11/11/3 13/13/3
f 14/14/3 3/3/3 12/12/3
f 14/14/3 1/1/3 3/3/3
f 17/17/2 18/18/2 19/19/2
f 17/17/2 20/20/2 18/18/2
f 20/20/1 16/16/1 18/18/1
f 20/20/1 15/15/1 16/16/1
f 21/21/4 19/19/4 22/22/4
f 21/21/4 17/17/4 19/19/4
f 23/23/2 22/22/2 24/24/2
f 23/23/2 21/21/2 22/22/2
f 8/8/1 24/24/1 6/6/1
f 8/8/1 23/23/1 24/24/1
