mtllib material.mtl
o Default
v 6 6 0
v 8 8 0
v 6 8 0
v 8 6 0
v 4 6 0
v 4 8 0
v 4 4 0
v 6 4 0
v 4 2 0
v 6 2 0
v 4 0 0
v 6 0 0
v 8 2 0
v 8 0 0
v 2 0 0
v 2 2 0
v 0 0 0
v 0 2 0
v 0 8 0
v 8 4 0
vt 0 0.4000000059604645
vt 0.10000000149011612 0.6000000238418579
vt 0 0.6000000238418579
vt 0.10000000149011612 0.4000000059604645
vt 0.20000000298023224 0
vt 0.4000000059604645 0.6000000238418579
vt 0.20000000298023224 0.6000000238418579
vt 0.4000000059604645 0
vn 0 0 1
g Factory_Window_Left
usemtl 0
f 1/1/1 2/2/1 3/3/1
f 1/1/1 4/4/1 2/2/1
f 5/1/1 3/2/1 6/3/1
f 5/1/1 1/4/1 3/2/1
f 7/1/1 1/2/1 5/3/1
f 7/1/1 8/4/1 1/2/1
f 9/1/1 8/2/1 7/3/1
f 9/1/1 10/4/1 8/2/1
f 11/1/1 10/2/1 9/3/1
f 11/1/1 12/4/1 10/2/1
f 12/1/1 13/2/1 10/3/1
f 12/1/1 14/4/1 13/2/1
f 15/1/1 9/2/1 16/3/1
f 15/1/1 11/4/1 9/2/1
f 17/1/1 16/2/1 18/3/1
f 17/1/1 15/4/1 16/2/1
f 18/5/1 6/6/1 19/7/1
f 18/5/1 9/8/1 6/6/1
f 10/1/1 20/2/1 8/3/1
f 10/1/1 13/4/1 20/2/1
f 8/1/1 4/2/1 1/3/1
f 8/1/1 20/4/1 4/2/1
