mtllib material.mtl
o Default
v 1.7763568394002505e-15 6 -9.769962616701378e-15
v 2 8 -9.769962616701378e-15
v 1.7763568394002505e-15 8 -9.769962616701378e-15
v 2 6 -9.769962616701378e-15
v 1.7763568394002505e-15 4 -9.769962616701378e-15
v 2 4 -9.769962616701378e-15
v 6 0 -9.769962616701378e-15
v 8 2 -9.769962616701378e-15
v 6 2 -9.769962616701378e-15
v 8 0 -9.769962616701378e-15
v 4 2 -9.769962616701378e-15
v 8 8 -9.769962616701378e-15
v 4 8 -9.769962616701378e-15
v 4 0 -9.769962616701378e-15
v 2 0 -9.769962616701378e-15
v 2 2 -9.769962616701378e-15
v 1.7763568394002505e-15 0 -9.769962616701378e-15
v 1.7763568394002505e-15 2 -9.769962616701378e-15
v 4 6 -9.769962616701378e-15
v 4 4 -9.769962616701378e-15
vt 0 0.4000000059604645
vt 0.10000000149011612 0.6000000238418579
vt 0 0.6000000238418579
vt 0.10000000149011612 0.4000000059604645
vt 0.20000000298023224 0
vt 0.4000000059604645 0.6000000238418579
vt 0.20000000298023224 0.6000000238418579
vt 0.4000000059604645 0
vn 0 0 1
g Factory_Window_Right
usemtl 0
f 1/1/1 2/2/1 3/3/1
f 1/1/1 4/4/1 2/2/1
f 5/1/1 4/2/1 1/3/1
f 5/1/1 6/4/1 4/2/1
f 7/1/1 8/2/1 9/3/1
f 7/1/1 10/4/1 8/2/1
f 11/5/1 12/6/1 13/7/1
f 11/5/1 8/8/1 12/6/1
f 14/1/1 9/2/1 11/3/1
f 14/1/1 7/4/1 9/2/1
f 15/1/1 11/2/1 16/3/1
f 15/1/1 14/4/1 11/2/1
f 17/1/1 16/2/1 18/3/1
f 17/1/1 15/4/1 16/2/1
f 4/1/1 13/2/1 2/3/1
f 4/1/1 19/4/1 13/2/1
f 18/1/1 6/2/1 5/3/1
f 18/1/1 16/4/1 6/2/1
f 16/1/1 20/2/1 6/3/1
f 16/1/1 11/4/1 20/2/1
f 6/1/1 19/2/1 4/3/1
f 6/1/1 20/4/1 19/2/1
