mtllib material.mtl
o Default
v -4 0.009375214576721191 4
v 0 0.009375214576721191 0
v -4 0.009375214576721191 0
v 0 0.009375214576721191 4
v 4 0.009375214576721191 4
v 4 0.009375214576721191 0
v 4 0.009375214576721191 -4
v 0 0.009375214576721191 -4
v -4 0.009375214576721191 -4
v 0 -1.1102230246251565e-16 0
v 4 7.771561172376096e-16 -4
v 0 7.771561172376096e-16 -4
v 4 -1.1102230246251565e-16 0
v -4 7.771561172376096e-16 -4
v -4 7.771561172376096e-16 0
v 4 7.771561172376096e-16 4
v 0 7.771561172376096e-16 4
v -4 -1.1102230246251565e-16 4
vt 0.20000000298023224 0.6000000238418579
vt 0.4000000059604645 1
vt 0.20000000298023224 1
vt 0.4000000059604645 0.6000000238418579
vt 0 0.6000000238418579
vt 0 1
vn 0 1 0
g Factory_Floor_4x4
usemtl 0
f 1/1/1 2/2/1 3/3/1
f 1/1/1 4/4/1 2/2/1
f 4/1/1 5/4/1 2/3/1
f 5/4/1 6/2/1 2/3/1
f 2/1/1 7/2/1 8/3/1
f 2/1/1 6/4/1 7/2/1
f 3/1/1 2/4/1 9/3/1
f 2/4/1 8/2/1 9/3/1
f 10/5/1 11/3/1 12/6/1
f 10/5/1 13/1/1 11/3/1
f 10/5/1 14/3/1 15/6/1
f 10/5/1 12/1/1 14/3/1
f 13/5/1 10/1/1 16/6/1
f 10/1/1 17/3/1 16/6/1
f 15/5/1 18/1/1 10/6/1
f 18/1/1 17/3/1 10/6/1
