mtllib material.mtl
o Default
v -1.7763568394002505e-15 -4.996003610813204e-16 0.125
v 0.125 2 0.125
v -1.7763568394002505e-15 2 0.125
v 0.125 -4.996003610813204e-16 0.125
v 0.125 2 0.5
v 0.125 -4.996003610813204e-16 0.5
v -1.7763568394002505e-15 2 0.5
v -1.7763568394002505e-15 -4.996003610813204e-16 0.5
v -1.7763568394002505e-15 -4.996003610813204e-16 0.5625
v 0.375 2 0.5625
v -1.7763568394002505e-15 2 0.5625
v 0.375 -4.996003610813204e-16 0.5625
v 0.25 -4.996003610813204e-16 0.5
v 0.25 2 0.125
v 0.25 2 0.5
v 0.25 -4.996003610813204e-16 0.125
v 0.375 2 0.5
v 0.375 -4.996003610813204e-16 0.5
v 0.375 -4.996003610813204e-16 0.125
v 0.375 2 1.7763568394002505e-15
v 0.375 2 0.125
v 0.375 -4.996003610813204e-16 1.7763568394002505e-15
v -1.7763568394002505e-15 -4.996003610813204e-16 1.7763568394002505e-15
v -1.7763568394002505e-15 2 1.7763568394002505e-15
v 0.125 4 0.125
v -1.7763568394002505e-15 4 0.125
v 0.125 4 0.5
v -1.7763568394002505e-15 4 0.5
v 0.375 4 0.5625
v -1.7763568394002505e-15 4 0.5625
v 0.25 4 0.125
v 0.25 4 0.5
v 0.375 4 0.5
v 0.375 4 1.7763568394002505e-15
v 0.375 4 0.125
v -1.7763568394002505e-15 4 1.7763568394002505e-15
v 0.125 6 0.125
v -1.7763568394002505e-15 6 0.125
v 0.125 6 0.5
v -1.7763568394002505e-15 6 0.5
v 0.375 6 0.5625
v -1.7763568394002505e-15 6 0.5625
v 0.25 6 0.125
v 0.25 6 0.5
v 0.375 6 0.5
v 0.375 6 1.7763568394002505e-15
v 0.375 6 0.125
v -1.7763568394002505e-15 6 1.7763568394002505e-15
v 0.125 8 0.125
v -1.7763568394002505e-15 8 0.125
v 0.125 8 0.5
v -1.7763568394002505e-15 8 0.5
v 0.375 8 0.5625
v -1.7763568394002505e-15 8 0.5625
v 0.25 8 0.125
v 0.25 8 0.5
v 0.375 8 0.5
v 0.375 8 1.7763568394002505e-15
v 0.375 8 0.125
v -1.7763568394002505e-15 8 1.7763568394002505e-15
vt 0.10625000298023224 0.4000000059604645
vt 0.11249999701976776 0.6000000238418579
vt 0.10625000298023224 0.6000000238418579
vt 0.11249999701976776 0.4000000059604645
vt 0.13125000894069672 0.6000000238418579
vt 0.13125000894069672 0.4000000059604645
vt 0.13750000298023224 0.6000000238418579
vt 0.13750000298023224 0.4000000059604645
vt 0.1406250149011612 0.4000000059604645
vt 0.15937501192092896 0.6000000238418579
vt 0.1406250149011612 0.6000000238418579
vt 0.15937501192092896 0.4000000059604645
vt 0.16875003278255463 0.4000000059604645
vt 0.1875000149011612 0.6000000238418579
vt 0.16875003278255463 0.6000000238418579
vt 0.1875000149011612 0.4000000059604645
vt 0.1625000238418579 0.6000000238418579
vt 0.1625000238418579 0.4000000059604645
vt 0.19375000894069672 0.4000000059604645
vt 0.20000000298023224 0.6000000238418579
vt 0.19375000894069672 0.6000000238418579
vt 0.20000000298023224 0.4000000059604645
vt 0.10000000149011612 0.4000000059604645
vt 0.10000000149011612 0.6000000238418579
vn 0 0 1
vn -1 0 0
vn 0 0 -1
vn 1 0 0
g Factory_Beam_1x4
usemtl 0
f 1/1/1 2/2/1 3/3/1
f 1/1/1 4/4/1 2/2/1
f 4/4/2 5/5/2 2/2/2
f 4/4/2 6/6/2 5/5/2
f 6/6/3 7/7/3 5/5/3
f 6/6/3 8/8/3 7/7/3
f 9/9/1 10/10/1 11/11/1
f 9/9/1 12/12/1 10/10/1
f 8/8/2 11/11/2 7/7/2
f 8/8/2 9/9/2 11/11/2
f 13/13/4 14/14/4 15/15/4
f 13/13/4 16/16/4 14/14/4
f 12/12/4 17/17/4 10/10/4
f 12/12/4 18/18/4 17/17/4
f 18/18/3 15/15/3 17/17/3
f 18/18/3 13/13/3 15/15/3
f 19/19/4 20/20/4 21/21/4
f 19/19/4 22/22/4 20/20/4
f 23/23/2 3/3/2 24/24/2
f 23/23/2 1/1/2 3/3/2
f 16/16/1 21/21/1 14/14/1
f 16/16/1 19/19/1 21/21/1
f 3/1/1 25/2/1 26/3/1
f 3/1/1 2/4/1 25/2/1
f 2/4/2 27/5/2 25/2/2
f 2/4/2 5/6/2 27/5/2
f 5/6/3 28/7/3 27/5/3
f 5/6/3 7/8/3 28/7/3
f 11/9/1 29/10/1 30/11/1
f 11/9/1 10/12/1 29/10/1
f 7/8/2 30/11/2 28/7/2
f 7/8/2 11/9/2 30/11/2
f 15/13/4 31/14/4 32/15/4
f 15/13/4 14/16/4 31/14/4
f 10/12/4 33/17/4 29/10/4
f 10/12/4 17/18/4 33/17/4
f 17/18/3 32/15/3 33/17/3
f 17/18/3 15/13/3 32/15/3
f 21/19/4 34/20/4 35/21/4
f 21/19/4 20/22/4 34/20/4
f 24/23/2 26/3/2 36/24/2
f 24/23/2 3/1/2 26/3/2
f 14/16/1 35/21/1 31/14/1
f 14/16/1 21/19/1 35/21/1
f 26/1/1 37/2/1 38/3/1
f 26/1/1 25/4/1 37/2/1
f 25/4/2 39/5/2 37/2/2
f 25/4/2 27/6/2 39/5/2
f 27/6/3 40/7/3 39/5/3
f 27/6/3 28/8/3 40/7/3
f 30/9/1 41/10/1 42/11/1
f 30/9/1 29/12/1 41/10/1
f 28/8/2 42/11/2 40/7/2
f 28/8/2 30/9/2 42/11/2
f 32/13/4 43/14/4 44/15/4
f 32/13/4 31/16/4 43/14/4
f 29/12/4 45/17/4 41/10/4
f 29/12/4 33/18/4 45/17/4
f 33/18/3 44/15/3 45/17/3
f 33/18/3 32/13/3 44/15/3
f 35/19/4 46/20/4 47/21/4
f 35/19/4 34/22/4 46/20/4
f 36/23/2 38/3/2 48/24/2
f 36/23/2 26/1/2 38/3/2
f 31/16/1 47/21/1 43/14/1
f 31/16/1 35/19/1 47/21/1
f 38/1/1 49/2/1 50/3/1
f 38/1/1 37/4/1 49/2/1
f 37/4/2 51/5/2 49/2/2
f 37/4/2 39/6/2 51/5/2
f 39/6/3 52/7/3 51/5/3
f 39/6/3 40/8/3 52/7/3
f 42/9/1 53/10/1 54/11/1
f 42/9/1 41/12/1 53/10/1
f 40/8/2 54/11/2 52/7/2
f 40/8/2 42/9/2 54/11/2
f 44/13/4 55/14/4 56/15/4
f 44/13/4 43/16/4 55/14/4
f 41/12/4 57/17/4 53/10/4
f 41/12/4 45/18/4 57/17/4
f 45/18/3 56/15/3 57/17/3
f 45/18/3 44/13/3 56/15/3
f 47/19/4 58/20/4 59/21/4
f 47/19/4 46/22/4 58/20/4
f 48/23/2 50/3/2 60/24/2
f 48/23/2 38/1/2 50/3/2
f 43/16/1 59/21/1 55/14/1
f 43/16/1 47/19/1 59/21/1
