mtllib material.mtl
o Default
v 0 -9.992007221626409e-16 4
v 0 -9.992007221626409e-16 8
v 4 2 4
v 4 2 8
v 8 2 4
v 8 4 8
v 0 -1.1102230246251565e-16 0
v 4 -9.992007221626409e-16 0
v 8 -1.1102230246251565e-16 0
v 0 0.009375214576721191 4
v 4 2.0093750953674316 4
v 0 0.009375214576721191 0
v 4 0.009375214576721191 0
v 8 0.009375214576721191 0
v 8 2.0093750953674316 4
v 4 2.0093750953674316 8
v 8 4.009375095367432 8
v 0 0.009375214576721191 8
vt 0 0.6000000238418579
vt 0.20000000298023224 0.6000000238418579
vt 0 1
vt 0.20000000298023224 1
vt 0.4000000059604645 0.6000000238418579
vt 0.4000000059604645 1
vn -0.4472136 0.89442719 0
vn 0 0.89442719 -0.4472136
vn -0.44721357 0.8944272 0
vn 0 0.8944272 -0.44721357
g Factory_OuterRamp_4x2x4
usemtl 0
f 1/1/1 2/2/1 3/3/1
f 2/2/1 4/4/1 3/3/1
f 5/1/2 3/2/2 6/3/2
f 3/2/1 4/4/1 6/3/1
f 3/1/1 7/4/1 1/3/1
f 3/1/2 8/2/2 7/4/2
f 3/1/2 9/4/2 8/3/2
f 3/1/2 5/2/2 9/4/2
f 10/2/3 11/5/3 12/4/3
f 11/5/4 13/6/4 12/4/4
f 11/2/4 14/6/4 13/4/4
f 11/2/4 15/5/4 14/6/4
f 16/2/1 17/5/1 11/4/1
f 17/5/2 15/6/2 11/4/2
f 18/2/3 11/6/3 10/4/3
f 18/2/3 16/5/3 11/6/3
