mtllib material.mtl
o Default
v 1.7763568394002505e-15 4.009375095367432 8
v 4 2.0093753337860107 4
v 1.7763568394002505e-15 2.0093753337860107 4
v 4 4.009375095367432 8
v 8 4.009375095367432 8
v 8 4.009375095367432 4
v 8 4.009375095367432 0
v 4 2.0093753337860107 0
v 1.7763568394002505e-15 0.009375214576721191 0
v 4 2 4
v 8 4 0
v 4 2 0
v 8 4 4
v 1.7763568394002505e-15 1.6653345369377348e-15 0
v 1.7763568394002505e-15 2 4
v 8 4 8
v 4 4 8
v 1.7763568394002505e-15 4 8
vt 0.20000000298023224 0.6000000238418579
vt 0.4000000059604645 1
vt 0.20000000298023224 1
vt 0.4000000059604645 0.6000000238418579
vt 0 0.6000000238418579
vt 0 1
vn 0 0.89442721 -0.44721355
vn -0.44721355 0.89442721 0
vn 0 0.89442718 -0.44721362
vn -0.44721362 0.89442718 0
vn -0.4472136 0.89442719 0
vn 0 0.89442719 -0.4472136
g Factory_InnerRamp_4x2x4
usemtl 0
f 1/1/1 2/2/1 3/3/1
f 1/1/1 4/4/1 2/2/1
f 4/1/1 5/4/1 2/3/1
f 5/4/2 6/2/2 2/3/2
f 2/1/2 7/2/2 8/3/2
f 2/1/2 6/4/2 7/2/2
f 3/1/3 2/4/3 9/3/3
f 2/4/4 8/2/4 9/3/4
f 10/5/5 11/3/5 12/6/5
f 10/5/5 13/1/5 11/3/5
f 10/5/6 14/3/6 15/6/6
f 10/5/5 12/1/5 14/3/5
f 13/5/5 10/1/5 16/6/5
f 10/1/6 17/3/6 16/6/6
f 15/5/6 18/1/6 10/6/6
f 18/1/6 17/3/6 10/6/6
