mtllib material.mtl
o Default
v 6 7.75 0.14499999582767487
v 8 7.625 0.14499999582767487
v 8 7.75 0.14499999582767487
v 6 7.625 0.14499999582767487
v 6 8 0.019999999552965164
v 8 8 0.14499999582767487
v 8 8 0.019999999552965164
v 6 8 0.14499999582767487
v 8 7.625 0.019999999552965164
v 6 7.625 0.019999999552965164
v 6 7.625 0.5199999809265137
v 8 7.75 0.5199999809265137
v 8 7.625 0.5199999809265137
v 6 7.75 0.5199999809265137
v 6 7.625 0.5824999809265137
v 8 7.625 0.5824999809265137
v 6 8 0.5199999809265137
v 8 8 0.5824999809265137
v 8 8 0.5199999809265137
v 6 8 0.5824999809265137
v 6 7.875 0.5199999809265137
v 8 7.875 0.5199999809265137
v 6 7.875 0.14499999582767487
v 8 7.875 0.14499999582767487
v 4 7.75 0.14499999582767487
v 4 7.625 0.14499999582767487
v 4 8 0.019999999552965164
v 4 8 0.14499999582767487
v 4 7.625 0.019999999552965164
v 4 7.625 0.5199999809265137
v 4 7.75 0.5199999809265137
v 4 7.625 0.5824999809265137
v 4 8 0.5199999809265137
v 4 8 0.5824999809265137
v 4 7.875 0.5199999809265137
v 4 7.875 0.14499999582767487
v 2 7.75 0.14499999582767487
v 2 7.625 0.14499999582767487
v 2 8 0.019999999552965164
v 2 8 0.14499999582767487
v 2 7.625 0.019999999552965164
v 2 7.625 0.5199999809265137
v 2 7.75 0.5199999809265137
v 2 7.625 0.5824999809265137
v 2 8 0.5199999809265137
v 2 8 0.5824999809265137
v 2 7.875 0.5199999809265137
v 2 7.875 0.14499999582767487
v -8.881784197001252e-16 7.75 0.14499999582767487
v -8.881784197001252e-16 7.625 0.14499999582767487
v -8.881784197001252e-16 8 0.019999999552965164
v -8.881784197001252e-16 8 0.14499999582767487
v -8.881784197001252e-16 7.625 0.019999999552965164
v -8.881784197001252e-16 7.625 0.5199999809265137
v -8.881784197001252e-16 7.75 0.5199999809265137
v -8.881784197001252e-16 7.625 0.5824999809265137
v -8.881784197001252e-16 8 0.5199999809265137
v -8.881784197001252e-16 8 0.5824999809265137
v -8.881784197001252e-16 7.875 0.5199999809265137
v -8.881784197001252e-16 7.875 0.14499999582767487
v 0.25 6 0.125
v 0.375 8 0.125
v 0.25 8 0.125
v 0.375 6 0.125
v -1.7763568394002505e-15 6 1.7763568394002505e-15
v -1.7763568394002505e-15 8 0.125
v -1.7763568394002505e-15 8 1.7763568394002505e-15
v -1.7763568394002505e-15 6 0.125
v 0.375 8 1.7763568394002505e-15
v 0.375 6 1.7763568394002505e-15
v 0.375 6 0.5
v 0.25 8 0.5
v 0.375 8 0.5
v 0.25 6 0.5
v 0.375 6 0.5625
v 0.375 8 0.5625
v -1.7763568394002505e-15 6 0.5
v -1.7763568394002505e-15 8 0.5625
v -1.7763568394002505e-15 8 0.5
v -1.7763568394002505e-15 6 0.5625
v 0.125 6 0.5
v 0.125 8 0.5
v 0.125 6 0.125
v 0.125 8 0.125
v 0.25 4 0.125
v 0.375 4 0.125
v -1.7763568394002505e-15 4 1.7763568394002505e-15
v -1.7763568394002505e-15 4 0.125
v 0.375 4 1.7763568394002505e-15
v 0.375 4 0.5
v 0.25 4 0.5
v 0.375 4 0.5625
v -1.7763568394002505e-15 4 0.5
v -1.7763568394002505e-15 4 0.5625
v 0.125 4 0.5
v 0.125 4 0.125
v 0.25 2 0.125
v 0.375 2 0.125
v -1.7763568394002505e-15 2 1.7763568394002505e-15
v -1.7763568394002505e-15 2 0.125
v 0.375 2 1.7763568394002505e-15
v 0.375 2 0.5
v 0.25 2 0.5
v 0.375 2 0.5625
v -1.7763568394002505e-15 2 0.5
v -1.7763568394002505e-15 2 0.5625
v 0.125 2 0.5
v 0.125 2 0.125
v 0.25 0 0.125
v 0.375 0 0.125
v -1.7763568394002505e-15 0 1.7763568394002505e-15
v -1.7763568394002505e-15 0 0.125
v 0.375 0 1.7763568394002505e-15
v 0.375 0 0.5
v 0.25 0 0.5
v 0.375 0 0.5625
v -1.7763568394002505e-15 0 0.5
v -1.7763568394002505e-15 0 0.5625
v 0.125 0 0.5
v 0.125 0 0.125
vt 0.1875000149011612 0.4000000059604645
vt 0.19375000894069672 0.6000000238418579
vt 0.1875000149011612 0.6000000238418579
vt 0.19375000894069672 0.4000000059604645
vt 0.10000000149011612 0.4000000059604645
vt 0.10625000298023224 0.6000000238418579
vt 0.10000000149011612 0.6000000238418579
vt 0.10625000298023224 0.4000000059604645
vt 0.20000000298023224 0.6000000238418579
vt 0.20000000298023224 0.4000000059604645
vt 0.1625000238418579 0.4000000059604645
vt 0.16875003278255463 0.6000000238418579
vt 0.1625000238418579 0.6000000238418579
vt 0.16875003278255463 0.4000000059604645
vt 0.15937501192092896 0.4000000059604645
vt 0.15937501192092896 0.6000000238418579
vt 0.13750000298023224 0.4000000059604645
vt 0.1406250149011612 0.6000000238418579
vt 0.13750000298023224 0.6000000238418579
vt 0.1406250149011612 0.4000000059604645
vt 0.13125000894069672 0.4000000059604645
vt 0.13125000894069672 0.6000000238418579
vt 0.11249999701976776 0.4000000059604645
vt 0.11249999701976776 0.6000000238418579
vn 0 0 1
vn 0 1 0
vn 0 -1 0
vn 0 0 -1
vn -1 0 0
vn 1 0 0
g Factory_Beam_4x4_Open
usemtl 0
f 1/1/1 2/2/1 3/3/1
f 1/1/1 4/4/1 2/2/1
f 5/5/2 6/6/2 7/7/2
f 5/5/2 8/8/2 6/6/2
f 4/4/3 9/9/3 2/2/3
f 4/4/3 10/10/3 9/9/3
f 11/11/4 12/12/4 13/13/4
f 11/11/4 14/14/4 12/12/4
f 15/15/3 13/13/3 16/16/3
f 15/15/3 11/11/3 13/13/3
f 14/14/3 3/3/3 12/12/3
f 14/14/3 1/1/3 3/3/3
f 17/17/2 18/18/2 19/19/2
f 17/17/2 20/20/2 18/18/2
f 20/20/1 16/16/1 18/18/1
f 20/20/1 15/15/1 16/16/1
f 21/21/4 19/19/4 22/22/4
f 21/21/4 17/17/4 19/19/4
f 23/23/2 22/22/2 24/24/2
f 23/23/2 21/21/2 22/22/2
f 8/8/1 24/24/1 6/6/1
f 8/8/1 23/23/1 24/24/1
f 25/1/1 4/2/1 1/3/1
f 25/1/1 26/4/1 4/2/1
f 27/5/2 8/6/2 5/7/2
f 27/5/2 28/8/2 8/6/2
f 26/4/3 10/9/3 4/2/3
f 26/4/3 29/10/3 10/9/3
f 30/11/4 14/12/4 11/13/4
f 30/11/4 31/14/4 14/12/4
f 32/15/3 11/13/3 15/16/3
f 32/15/3 30/11/3 11/13/3
f 31/14/3 1/3/3 14/12/3
f 31/14/3 25/1/3 1/3/3
f 33/17/2 20/18/2 17/19/2
f 33/17/2 34/20/2 20/18/2
f 34/20/1 15/16/1 20/18/1
f 34/20/1 32/15/1 15/16/1
f 35/21/4 17/19/4 21/22/4
f 35/21/4 33/17/4 17/19/4
f 36/23/2 21/22/2 23/24/2
f 36/23/2 35/21/2 21/22/2
f 28/8/1 23/24/1 8/6/1
f 28/8/1 36/23/1 23/24/1
f 37/1/1 26/2/1 25/3/1
f 37/1/1 38/4/1 26/2/1
f 39/5/2 28/6/2 27/7/2
f 39/5/2 40/8/2 28/6/2
f 38/4/3 29/9/3 26/2/3
f 38/4/3 41/10/3 29/9/3
f 42/11/4 31/12/4 30/13/4
f 42/11/4 43/14/4 31/12/4
f 44/15/3 30/13/3 32/16/3
f 44/15/3 42/11/3 30/13/3
f 43/14/3 25/3/3 31/12/3
f 43/14/3 37/1/3 25/3/3
f 45/17/2 34/18/2 33/19/2
f 45/17/2 46/20/2 34/18/2
f 46/20/1 32/16/1 34/18/1
f 46/20/1 44/15/1 32/16/1
f 47/21/4 33/19/4 35/22/4
f 47/21/4 45/17/4 33/19/4
f 48/23/2 35/22/2 36/24/2
f 48/23/2 47/21/2 35/22/2
f 40/8/1 36/24/1 28/6/1
f 40/8/1 48/23/1 36/24/1
f 49/1/1 38/2/1 37/3/1
f 49/1/1 50/4/1 38/2/1
f 51/5/2 40/6/2 39/7/2
f 51/5/2 52/8/2 40/6/2
f 50/4/3 41/9/3 38/2/3
f 50/4/3 53/10/3 41/9/3
f 54/11/4 43/12/4 42/13/4
f 54/11/4 55/14/4 43/12/4
f 56/15/3 42/13/3 44/16/3
f 56/15/3 54/11/3 42/13/3
f 55/14/3 37/3/3 43/12/3
f 55/14/3 49/1/3 37/3/3
f 57/17/2 46/18/2 45/19/2
f 57/17/2 58/20/2 46/18/2
f 58/20/1 44/16/1 46/18/1
f 58/20/1 56/15/1 44/16/1
f 59/21/4 45/19/4 47/22/4
f 59/21/4 57/17/4 45/19/4
f 60/23/2 47/22/2 48/24/2
f 60/23/2 59/21/2 47/22/2
f 52/8/1 48/24/1 40/6/1
f 52/8/1 60/23/1 48/24/1
f 61/1/1 62/2/1 63/3/1
f 61/1/1 64/4/1 62/2/1
f 65/5/5 66/6/5 67/7/5
f 65/5/5 68/8/5 66/6/5
f 64/4/6 69/9/6 62/2/6
f 64/4/6 70/10/6 69/9/6
f 71/11/4 72/12/4 73/13/4
f 71/11/4 74/14/4 72/12/4
f 75/15/6 73/13/6 76/16/6
f 75/15/6 71/11/6 73/13/6
f 74/14/6 63/3/6 72/12/6
f 74/14/6 61/1/6 63/3/6
f 77/17/5 78/18/5 79/19/5
f 77/17/5 80/20/5 78/18/5
f 80/20/1 76/16/1 78/18/1
f 80/20/1 75/15/1 76/16/1
f 81/21/4 79/19/4 82/22/4
f 81/21/4 77/17/4 79/19/4
f 83/23/5 82/22/5 84/24/5
f 83/23/5 81/21/5 82/22/5
f 68/8/1 84/24/1 66/6/1
f 68/8/1 83/23/1 84/24/1
f 85/1/1 64/2/1 61/3/1
f 85/1/1 86/4/1 64/2/1
f 87/5/5 68/6/5 65/7/5
f 87/5/5 88/8/5 68/6/5
f 86/4/6 70/9/6 64/2/6
f 86/4/6 89/10/6 70/9/6
f 90/11/4 74/12/4 71/13/4
f 90/11/4 91/14/4 74/12/4
f 92/15/6 71/13/6 75/16/6
f 92/15/6 90/11/6 71/13/6
f 91/14/6 61/3/6 74/12/6
f 91/14/6 85/1/6 61/3/6
f 93/17/5 80/18/5 77/19/5
f 93/17/5 94/20/5 80/18/5
f 94/20/1 75/16/1 80/18/1
f 94/20/1 92/15/1 75/16/1
f 95/21/4 77/19/4 81/22/4
f 95/21/4 93/17/4 77/19/4
f 96/23/5 81/22/5 83/24/5
f 96/23/5 95/21/5 81/22/5
f 88/8/1 83/24/1 68/6/1
f 88/8/1 96/23/1 83/24/1
f 97/1/1 86/2/1 85/3/1
f 97/1/1 98/4/1 86/2/1
f 99/5/5 88/6/5 87/7/5
f 99/5/5 100/8/5 88/6/5
f 98/4/6 89/9/6 86/2/6
f 98/4/6 101/10/6 89/9/6
f 102/11/4 91/12/4 90/13/4
f 102/11/4 103/14/4 91/12/4
f 104/15/6 90/13/6 92/16/6
f 104/15/6 102/11/6 90/13/6
f 103/14/6 85/3/6 91/12/6
f 103/14/6 97/1/6 85/3/6
f 105/17/5 94/18/5 93/19/5
f 105/17/5 106/20/5 94/18/5
f 106/20/1 92/16/1 94/18/1
f 106/20/1 104/15/1 92/16/1
f 107/21/4 93/19/4 95/22/4
f 107/21/4 105/17/4 93/19/4
f 108/23/5 95/22/5 96/24/5
f 108/23/5 107/21/5 95/22/5
f 100/8/1 96/24/1 88/6/1
f 100/8/1 108/23/1 96/24/1
f 109/1/1 98/2/1 97/3/1
f 109/1/1 110/4/1 98/2/1
f 111/5/5 100/6/5 99/7/5
f 111/5/5 112/8/5 100/6/5
f 110/4/6 101/9/6 98/2/6
f 110/4/6 113/10/6 101/9/6
f 114/11/4 103/12/4 102/13/4
f 114/11/4 115/14/4 103/12/4
f 116/15/6 102/13/6 104/16/6
f 116/15/6 114/11/6 102/13/6
f 115/14/6 97/3/6 103/12/6
f 115/14/6 109/1/6 97/3/6
f 117/17/5 106/18/5 105/19/5
f 117/17/5 118/20/5 106/18/5
f 118/20/1 104/16/1 106/18/1
f 118/20/1 116/15/1 104/16/1
f 119/21/4 105/19/4 107/22/4
f 119/21/4 117/17/4 105/19/4
f 120/23/5 107/22/5 108/24/5
f 120/23/5 119/21/5 107/22/5
f 112/8/1 108/24/1 100/6/1
f 112/8/1 120/23/1 108/24/1
