mtllib material.mtl
o Default
v 1.7763568394002505e-15 2 4
v 1.7763568394002505e-15 4 8
v 4 2 4
v 4 4 8
v 8 4 4
v 8 4 8
v 1.7763568394002505e-15 1.6653345369377348e-15 0
v 4 2 0
v 8 4 0
v 1.7763568394002505e-15 2.0093753337860107 4
v 4 2.0093753337860107 4
v 1.7763568394002505e-15 0.009375214576721191 0
v 4 2.0093753337860107 0
v 8 4.009375095367432 0
v 8 4.009375095367432 4
v 4 4.009375095367432 8
v 8 4.009375095367432 8
v 1.7763568394002505e-15 4.009375095367432 8
vt 0 0.6000000238418579
vt 0.20000000298023224 0.6000000238418579
vt 0 1
vt 0.20000000298023224 1
vt 0.4000000059604645 0.6000000238418579
vt 0.4000000059604645 1
vn 0 0.89442719 -0.4472136
vn -0.4472136 0.89442719 0
vn 0 0.89442718 -0.44721362
vn -0.44721362 0.89442718 0
vn -0.44721355 0.89442721 0
vn 0 0.89442721 -0.44721355
g Factory_InnerRamp_4x2x4
usemtl 0
f 1/1/1 2/2/1 3/3/1
f 2/2/1 4/4/1 3/3/1
f 5/1/2 3/2/2 6/3/2
f 3/2/1 4/4/1 6/3/1
f 3/1/1 7/4/1 1/3/1
f 3/1/2 8/2/2 7/4/2
f 3/1/2 9/4/2 8/3/2
f 3/1/2 5/2/2 9/4/2
f 10/2/3 11/5/3 12/4/3
f 11/5/4 13/6/4 12/4/4
f 11/2/5 14/6/5 13/4/5
f 11/2/5 15/5/5 14/6/5
f 16/2/6 17/5/6 11/4/6
f 17/5/5 15/6/5 11/4/5
f 18/2/6 11/6/6 10/4/6
f 18/2/6 16/5/6 11/6/6
