mtllib material.mtl
o Default
v 2 4 -9.769962616701378e-15
v 4 6 -9.769962616701378e-15
v 2 6 -9.769962616701378e-15
v 4 4 -9.769962616701378e-15
v 2 2 -9.769962616701378e-15
v 4 2 -9.769962616701378e-15
v 1.7763568394002505e-15 2 -9.769962616701378e-15
v 1.7763568394002505e-15 4 -9.769962616701378e-15
v 4 8 -9.769962616701378e-15
v 2 8 -9.769962616701378e-15
v 1.7763568394002505e-15 0 -9.769962616701378e-15
v 2 0 -9.769962616701378e-15
v 4 0 -9.769962616701378e-15
v 6 2 -9.769962616701378e-15
v 6 0 -9.769962616701378e-15
v 8 8 -9.769962616701378e-15
v 8 2 -9.769962616701378e-15
v 8 0 -9.769962616701378e-15
v 1.7763568394002505e-15 6 -9.769962616701378e-15
v 1.7763568394002505e-15 8 -9.769962616701378e-15
vt 0 0.4000000059604645
vt 0.10000000149011612 0.6000000238418579
vt 0 0.6000000238418579
vt 0.10000000149011612 0.4000000059604645
vt 0.20000000298023224 0
vt 0.4000000059604645 0.6000000238418579
vt 0.20000000298023224 0.6000000238418579
vt 0.4000000059604645 0
vn 0 0 1
g Factory_Window_Right
usemtl 0
f 1/1/1 2/2/1 3/3/1
f 1/1/1 4/4/1 2/2/1
f 5/1/1 4/2/1 1/3/1
f 5/1/1 6/4/1 4/2/1
f 7/1/1 1/2/1 8/3/1
f 7/1/1 5/4/1 1/2/1
f 3/1/1 9/2/1 10/3/1
f 3/1/1 2/4/1 9/2/1
f 11/1/1 5/2/1 7/3/1
f 11/1/1 12/4/1 5/2/1
f 12/1/1 6/2/1 5/3/1
f 12/1/1 13/4/1 6/2/1
f 13/1/1 14/2/1 6/3/1
f 13/1/1 15/4/1 14/2/1
f 6/5/1 16/6/1 9/7/1
f 6/5/1 17/8/1 16/6/1
f 15/1/1 17/2/1 14/3/1
f 15/1/1 18/4/1 17/2/1
f 8/1/1 3/2/1 19/3/1
f 8/1/1 1/4/1 3/2/1
f 19/1/1 10/2/1 20/3/1
f 19/1/1 3/4/1 10/2/1
