mtllib material.mtl
o Default
v 0 0.009375214576721191 8
v 4 4.009375095367432 4
v 0 0.009375214576721191 4
v 4 4.009375095367432 8
v 8 8.009374618530273 8
v 8 4.009375095367432 4
v 8 0.009375214576721191 0
v 4 0.009375214576721191 0
v 0 0.009375214576721191 0
v 4 4 4
v 8 7.771561172376096e-16 0
v 4 7.771561172376096e-16 0
v 8 4 4
v 0 7.771561172376096e-16 0
v 0 7.771561172376096e-16 4
v 8 8 8
v 4 4 8
v 0 -1.1102230246251565e-16 8
vt 0.20000000298023224 0.6000000238418579
vt 0.4000000059604645 1
vt 0.20000000298023224 1
vt 0.4000000059604645 0.6000000238418579
vt 0 0.6000000238418579
vt 0 1
vn -0.70710677 0.70710679 0
vn -0.70710674 0.70710682 0
vn 0 0.70710682 -0.70710674
vn 0 0.70710679 -0.70710677
vn 0 0.70710678 -0.70710678
vn -0.70710678 0.70710678 0
g Factory_OuterRamp_4x4x4
usemtl 0
f 1/1/1 2/2/1 3/3/1
f 1/1/1 4/4/1 2/2/1
f 4/1/2 5/4/2 2/3/2
f 5/4/3 6/2/3 2/3/3
f 2/1/4 7/2/4 8/3/4
f 2/1/4 6/4/4 7/2/4
f 3/1/1 2/4/1 9/3/1
f 2/4/4 8/2/4 9/3/4
f 10/5/5 11/3/5 12/6/5
f 10/5/5 13/1/5 11/3/5
f 10/5/6 14/3/6 15/6/6
f 10/5/5 12/1/5 14/3/5
f 13/5/5 10/1/5 16/6/5
f 10/1/6 17/3/6 16/6/6
f 15/5/6 17/3/6 10/6/6
f 15/5/6 18/1/6 17/3/6
