mtllib material.mtl
o Default
v 0 0 4
v 4 2 8
v 4 2 4
v 0 0 8
v 8 4 4
v 8 4 8
v 0 0 0
v 4 2 0
v 8 4 0
v 0 0.009375572204589844 4
v 4 2.00937557220459 0
v 0 0.009375572204589844 0
v 4 2.00937557220459 4
v 8 4.00937557220459 0
v 8 4.00937557220459 4
v 4 2.00937557220459 8
v 8 4.00937557220459 8
v 0 0.009375572204589844 8
vt 0 0.6000000238418579
vt 0.20000000298023224 1
vt 0 1
vt 0.20000000298023224 0.6000000238418579
vt 0.4000000059604645 1
vt 0.4000000059604645 0.6000000238418579
vn -0.4472136 0.89442719 0
g Factory_Ramp_4x2x4
usemtl 0
f 1/1/1 2/2/1 3/3/1
f 1/1/1 4/4/1 2/2/1
f 5/1/1 2/2/1 6/3/1
f 5/1/1 3/4/1 2/2/1
f 3/1/1 7/2/1 1/3/1
f 3/1/1 8/4/1 7/2/1
f 3/1/1 9/2/1 8/3/1
f 3/1/1 5/4/1 9/2/1
f 10/4/1 11/5/1 12/2/1
f 10/4/1 13/6/1 11/5/1
f 13/4/1 14/5/1 11/2/1
f 13/4/1 15/6/1 14/5/1
f 16/4/1 15/5/1 13/2/1
f 16/4/1 17/6/1 15/5/1
f 18/4/1 13/5/1 10/2/1
f 18/4/1 16/6/1 13/5/1
