mtllib material.mtl
o Default
v 3 0 0
v 5 0 -2
v 3 0 -2
v 5 0 0
v 2 4 -2
v 3 4 -2
v 2 0 -2
v 6 0 -2
v 5 4 -2
v 6 4 -2
v 2 6 -2
v 6 6 -2
v 0 6 -2
v 0 4 -2
v 0 8 -2
v 2 8 -2
v 4 6 -2
v 4 8 -2
v 6 8 -2
v 8 6 -2
v 8 8 -2
v 8 4 -2
v 8 2 -2
v 6 2 -2
v 8 0 -2
v 2 2 -2
v 0 2 -2
v 0 0 -2
v 5 2 -2
v 5 4 0
v 5 2 0
v 3 4 0
v 3 2 0
v 3 2 -2
v 6 4 0
v 6 0 0
v 2 0 0
v 2 4 0
v 0 0 0
v 2 2 0
v 0 2 0
v 0 4 0
v 2 6 0
v 0 6 0
v 8 6 0
v 6 6 0
v 8 4 0
v 6 2 0
v 8 2 0
v 8 0 0
v 8 8 0
v 6 8 0
v 4 6 0
v 4 8 0
v 2 8 0
v 0 8 0
vt 0 0.800000011920929
vt 0.10000000149011612 1
vt 0 1
vt 0.10000000149011612 0.800000011920929
vt 0.75 0.4000000059604645
vt 0.800000011920929 0.800000011920929
vt 0.75 0.800000011920929
vt 0.800000011920929 0.4000000059604645
vt 0.6000000238418579 0.4000000059604645
vt 0.6500000357627869 0.800000011920929
vt 0.6000000238418579 0.800000011920929
vt 0.6500000357627869 0.4000000059604645
vt 0.800000011920929 1
vt 0.6000000238418579 1
vt 0 0.4000000059604645
vt 0.10000000149011612 0.6000000238418579
vt 0 0.6000000238418579
vt 0.10000000149011612 0.4000000059604645
vn 0 1 0
vn 0 0 -1
vn -1 0 0
vn 0 -1 0
vn 1 0 0
vn 0 0 1
g Factory_Door_Open
usemtl 0
f 1/1/1 2/2/1 3/3/1
f 1/1/1 4/4/1 2/2/1
f 3/5/2 5/6/2 6/7/2
f 3/5/2 7/8/2 5/6/2
f 8/9/2 9/10/2 10/11/2
f 8/9/2 2/12/2 9/10/2
f 10/11/2 11/13/2 12/14/2
f 10/11/2 5/6/2 11/13/2
f 5/15/2 13/16/2 11/17/2
f 5/15/2 14/18/2 13/16/2
f 11/15/2 15/16/2 16/17/2
f 11/15/2 13/18/2 15/16/2
f 17/15/2 16/16/2 18/17/2
f 17/15/2 11/18/2 16/16/2
f 12/15/2 18/16/2 19/17/2
f 12/15/2 17/18/2 18/16/2
f 20/15/2 19/16/2 21/17/2
f 20/15/2 12/18/2 19/16/2
f 22/15/2 12/16/2 20/17/2
f 22/15/2 10/18/2 12/16/2
f 23/15/2 10/16/2 22/17/2
f 23/15/2 24/18/2 10/16/2
f 25/15/2 24/16/2 23/17/2
f 25/15/2 8/18/2 24/16/2
f 26/15/2 14/16/2 5/17/2
f 26/15/2 27/18/2 14/16/2
f 7/15/2 27/16/2 26/17/2
f 7/15/2 28/18/2 27/16/2
f 29/15/3 30/16/3 9/17/3
f 29/15/3 31/18/3 30/16/3
f 2/15/3 31/16/3 29/17/3
f 2/15/3 4/18/3 31/16/3
f 6/15/4 30/16/4 32/17/4
f 6/15/4 9/18/4 30/16/4
f 33/15/5 6/16/5 32/17/5
f 33/15/5 34/18/5 6/16/5
f 1/15/5 34/16/5 33/17/5
f 1/15/5 3/18/5 34/16/5
f 4/5/6 35/6/6 30/7/6
f 4/5/6 36/8/6 35/6/6
f 37/9/6 32/10/6 38/11/6
f 37/9/6 1/12/6 32/10/6
f 39/15/6 40/16/6 41/17/6
f 39/15/6 37/18/6 40/16/6
f 41/15/6 38/16/6 42/17/6
f 41/15/6 40/18/6 38/16/6
f 42/15/6 43/16/6 44/17/6
f 42/15/6 38/18/6 43/16/6
f 35/15/6 45/16/6 46/17/6
f 35/15/6 47/18/6 45/16/6
f 48/15/6 47/16/6 35/17/6
f 48/15/6 49/18/6 47/16/6
f 36/15/6 49/16/6 48/17/6
f 36/15/6 50/18/6 49/16/6
f 46/15/6 51/16/6 52/17/6
f 46/15/6 45/18/6 51/16/6
f 53/15/6 52/16/6 54/17/6
f 53/15/6 46/18/6 52/16/6
f 43/15/6 54/16/6 55/17/6
f 43/15/6 53/18/6 54/16/6
f 44/15/6 55/16/6 56/17/6
f 44/15/6 43/18/6 55/16/6
f 38/11/6 46/13/6 43/14/6
f 38/11/6 35/6/6 46/13/6
