mtllib material.mtl
o Default
v 2 0 4
v 4 0 6
v 2 0 6
v 4 0 4
v 6 0 6
v 6 0 4
v 6 0 8
v 4 0 8
v 2 0 8
v -2 0 6
v 0 0 8
v -2 0 8
v 0 0 6
v -2 0 4
v 0 0 4
v -2 0 2
v 0 0 2
v 2 0 0
v 4 0 2
v 2 0 2
v 4 0 0
v 6 0 2
v 6 0 0
v 8 0 2
v 10 0 4
v 8 0 4
v 10 0 2
v 10 0 6
v 8 0 6
v 10 0 8
v 8 0 8
v 6 0 10
v 4 0 10
v 2 0 10
v 0 0 10
v -2 0 10
v 10 0 10
v 8 0 10
v 8 0 0
v 10 0 0
v -2 0 0
v 0 0 0
v 2 14 10
v 4 14 8
v 2 14 8
v 4 14 10
v 8 14 4
v 10 14 2
v 8 14 2
v 10 14 4
v 4 14 2
v 6 14 0
v 4 14 0
v 6 14 2
v 2 14 2
v 2 14 0
v -2 14 4
v 0 14 2
v -2 14 2
v 0 14 4
v 4 14 4
v 6 14 4
v 2 14 4
v -2 14 6
v 0 14 6
v 2 14 6
v 4 14 6
v 8 14 6
v 10 14 6
v -2 14 8
v 0 14 8
v 6 14 6
v 6 14 8
v 8 14 8
v 10 14 8
v 6 14 10
v 0 14 0
v -2 14 0
v 10 14 0
v 8 14 0
v 8 14 10
v 10 14 10
v -2 14 10
v 0 14 10
v -2 4 4
v -2 6 6
v -2 6 4
v -2 4 6
v -2 8 6
v -2 8 4
v -2 6 2
v -2 8 2
v -2 4 2
v -2 2 2
v -2 2 4
v -2 2 6
v -2 4 8
v -2 2 8
v -2 6 8
v -2 8 8
v -2 10 8
v -2 10 6
v -2 10 4
v -2 10 2
v -2 8 0
v -2 10 0
v -2 6 0
v -2 4 0
v -2 2 0
v -2 4 10
v -2 2 10
v -2 6 10
v -2 8 10
v -2 10 10
v 6 6 0
v 4 8 0
v 6 8 0
v 4 6 0
v 6 4 0
v 4 4 0
v 2 6 0
v 2 4 0
v 2 8 0
v 2 10 0
v 4 10 0
v 10 8 0
v 8 10 0
v 10 10 0
v 8 8 0
v 10 6 0
v 8 6 0
v 10 4 0
v 8 4 0
v 10 2 0
v 8 2 0
v 4 2 0
v 6 2 0
v 2 2 0
v 0 2 0
v 0 4 0
v 0 6 0
v 0 8 0
v 0 10 0
v 10 6 6
v 10 8 4
v 10 8 6
v 10 6 4
v 10 4 6
v 10 4 4
v 10 6 2
v 10 4 2
v 10 8 2
v 10 10 2
v 10 10 4
v 10 10 6
v 10 8 8
v 10 10 8
v 10 6 8
v 10 4 8
v 10 2 8
v 10 2 6
v 10 2 4
v 10 2 2
v 10 8 10
v 10 10 10
v 10 6 10
v 10 4 10
v 10 2 10
v 4 10 9
v 4 10 10
v 2 10 9
v 2 10 10
v 6 2 10
v 4 2 10
v 8 2 10
v 6 10 9
v 6 10 10
v 2 2 10
v 4 2 9
v 2 2 9
v 6 2 9
v 2 8 9
v 2 8 10
v 2 6 9
v 2 6 10
v 2 4 9
v 2 4 10
v 6 8 9
v 6 8 10
v 6 6 9
v 6 6 10
v 6 4 9
v 6 4 10
v 4 2 7
v 6 2 5
v 4 2 5
v 6 2 7
v 0 2 7
v 2 2 5
v 0 2 5
v 2 2 7
v 2 2 3
v 4 2 1
v 2 2 1
v 4 2 3
v 0 2 3
v 0 2 1
v 6 2 3
v 6 2 1
v 8 2 1
v 8 2 3
v 8 2 5
v 8 2 7
v 8 2 9
v 0 2 9
v 6 10 1
v 8 10 5
v 6 10 5
v 8 10 1
v 4 10 1
v 4 10 5
v 2 10 1
v 2 10 5
v 0 10 1
v 0 10 5
v 0 10 9
v 8 10 9
v 0 8 9
v 0 6 9
v 0 4 9
v 8 8 9
v 8 6 9
v 8 4 9
v 8 10 7
v 8 10 3
v 0 10 7
v 0 10 3
v 6 10 0
v 0 2 10
v 0 8 10
v 0 10 10
v 0 6 10
v 0 4 10
v 8 4 10
v 8 6 10
v 8 8 10
v 8 10 10
v 0 12 10
v -2 12 10
v 10 12 10
v 8 12 10
v 2 12 10
v 4 12 10
v 6 12 10
v -2 12 2
v -2 12 4
v -2 12 6
v -2 12 8
v -2 12 0
v 10 12 8
v 10 12 6
v 10 12 4
v 10 12 2
v 10 12 0
v 6 12 0
v 8 12 0
v 4 12 0
v 2 12 0
v 0 12 0
vt 0.30000001192092896 0
vt 0.20000000298023224 0.20000000298023224
vt 0.30000001192092896 0.20000000298023224
vt 0.20000000298023224 0
vt 0.4000000059604645 0
vt 0.4000000059604645 0.20000000298023224
vt 0.20000000298023224 0.4000000059604645
vt 0.30000001192092896 0.4000000059604645
vt 0.10000000149011612 0.6000000238418579
vt 0.15000000596046448 0.6000000238418579
vt 0.10000000149011612 0.4000000059604645
vt 0.15000000596046448 0.4000000059604645
vt 0.20000000298023224 0.800000011920929
vt 0.10000000149011612 1
vt 0.10000000149011612 0.800000011920929
vt 0.20000000298023224 1
vt 0.5 0
vt 0.5 0.20000000298023224
vt 0.10000000149011612 0.20000000298023224
vt 0 0.20000000298023224
vt 0.10000000149011612 0.10000000149011612
vt 0 0.10000000149011612
vt 0 0
vt 0.10000000149011612 0
vt 0.4000000059604645 0.6000000238418579
vt 0.30000001192092896 0.6000000238418579
vt 0.30000001192092896 0.800000011920929
vt 0.4000000059604645 1
vt 0.30000001192092896 1
vt 0.4000000059604645 0.800000011920929
vt 0.5 0.800000011920929
vt 0.5 1
vt 0.20000000298023224 0.6000000238418579
vt 0 1
vt 0.6000000238418579 0
vt 0.6000000238418579 0.20000000298023224
vn 0 -1 0
vn 0 1 0
vn -1 0 0
vn 0 0 -1
vn 1 0 0
vn 0 0 1
g Elevator
usemtl Elevator
f 1/1/1 2/2/1 3/3/1
f 1/1/1 4/4/1 2/2/1
f 4/1/1 5/2/1 2/3/1
f 4/1/1 6/4/1 5/2/1
f 2/1/1 7/2/1 8/3/1
f 2/1/1 5/4/1 7/2/1
f 3/1/1 8/2/1 9/3/1
f 3/1/1 2/4/1 8/2/1
f 10/5/1 11/3/1 12/6/1
f 10/5/1 13/1/1 11/3/1
f 14/5/1 13/3/1 10/6/1
f 14/5/1 15/1/1 13/3/1
f 16/5/1 15/3/1 14/6/1
f 16/5/1 17/1/1 15/3/1
f 18/6/1 19/1/1 20/3/1
f 18/6/1 21/5/1 19/1/1
f 21/6/1 22/1/1 19/3/1
f 21/6/1 23/5/1 22/1/1
f 24/3/1 25/5/1 26/1/1
f 24/3/1 27/6/1 25/5/1
f 26/3/1 28/5/1 29/1/1
f 26/3/1 25/6/1 28/5/1
f 29/3/1 30/5/1 31/1/1
f 29/3/1 28/6/1 30/5/1
f 8/1/1 32/6/1 33/5/1
f 8/1/1 7/3/1 32/6/1
f 9/1/1 33/6/1 34/5/1
f 9/1/1 8/3/1 33/6/1
f 12/3/1 35/7/1 36/8/1
f 12/3/1 11/2/1 35/7/1
f 31/2/1 37/8/1 38/3/1
f 31/2/1 30/7/1 37/8/1
f 39/7/1 27/3/1 24/2/1
f 39/7/1 40/8/1 27/3/1
f 41/8/1 17/2/1 16/7/1
f 41/8/1 42/3/1 17/2/1
f 43/6/2 44/1/2 45/3/2
f 43/6/2 46/5/2 44/1/2
f 47/3/2 48/5/2 49/1/2
f 47/3/2 50/6/2 48/5/2
f 51/1/2 52/6/2 53/5/2
f 51/1/2 54/3/2 52/6/2
f 55/1/2 53/6/2 56/5/2
f 55/1/2 51/3/2 53/6/2
f 57/5/2 58/3/2 59/6/2
f 57/5/2 60/1/2 58/3/2
f 61/1/2 54/2/2 51/3/2
f 61/1/2 62/4/2 54/2/2
f 63/1/2 51/2/2 55/3/2
f 63/1/2 61/4/2 51/2/2
f 64/5/2 60/3/2 57/6/2
f 64/5/2 65/1/2 60/3/2
f 66/1/2 61/2/2 63/3/2
f 66/1/2 67/4/2 61/2/2
f 68/3/2 50/5/2 47/1/2
f 68/3/2 69/6/2 50/5/2
f 70/5/2 65/3/2 64/6/2
f 70/5/2 71/1/2 65/3/2
f 45/1/2 67/2/2 66/3/2
f 45/1/2 44/4/2 67/2/2
f 67/1/2 62/2/2 61/3/2
f 67/1/2 72/4/2 62/2/2
f 44/1/2 72/2/2 67/3/2
f 44/1/2 73/4/2 72/2/2
f 74/3/2 69/5/2 68/1/2
f 74/3/2 75/6/2 69/5/2
f 46/6/2 73/1/2 44/3/2
f 46/6/2 76/5/2 73/1/2
f 59/3/2 77/7/2 78/8/2
f 59/3/2 58/2/2 77/7/2
f 49/2/2 79/8/2 80/3/2
f 49/2/2 48/7/2 79/8/2
f 81/7/2 75/3/2 74/2/2
f 81/7/2 82/8/2 75/3/2
f 83/8/2 71/2/2 70/7/2
f 83/8/2 84/3/2 71/2/2
f 85/1/3 86/2/3 87/3/3
f 85/1/3 88/4/3 86/2/3
f 87/1/3 89/2/3 90/3/3
f 87/1/3 86/4/3 89/2/3
f 91/1/3 90/2/3 92/3/3
f 91/1/3 87/4/3 90/2/3
f 93/1/3 87/2/3 91/3/3
f 93/1/3 85/4/3 87/2/3
f 94/1/3 85/2/3 93/3/3
f 94/1/3 95/4/3 85/2/3
f 95/1/3 88/2/3 85/3/3
f 95/1/3 96/4/3 88/2/3
f 96/1/3 97/2/3 88/3/3
f 96/1/3 98/4/3 97/2/3
f 88/1/3 99/2/3 86/3/3
f 88/1/3 97/4/3 99/2/3
f 86/1/3 100/2/3 89/3/3
f 86/1/3 99/4/3 100/2/3
f 89/1/3 101/2/3 102/3/3
f 89/1/3 100/4/3 101/2/3
f 90/1/3 102/2/3 103/3/3
f 90/1/3 89/4/3 102/2/3
f 92/1/3 103/2/3 104/3/3
f 92/1/3 90/4/3 103/2/3
f 105/5/3 104/3/3 106/6/3
f 105/5/3 92/1/3 104/3/3
f 107/5/3 92/3/3 105/6/3
f 107/5/3 91/1/3 92/3/3
f 108/5/3 91/3/3 107/6/3
f 108/5/3 93/1/3 91/3/3
f 109/5/3 93/3/3 108/6/3
f 109/5/3 94/1/3 93/3/3
f 16/6/3 95/1/3 94/3/3
f 16/6/3 14/5/3 95/1/3
f 14/6/3 96/1/3 95/3/3
f 14/6/3 10/5/3 96/1/3
f 10/6/3 98/1/3 96/3/3
f 10/6/3 12/5/3 98/1/3
f 98/3/3 110/5/3 97/1/3
f 98/3/3 111/6/3 110/5/3
f 97/3/3 112/5/3 99/1/3
f 97/3/3 110/6/3 112/5/3
f 99/3/3 113/5/3 100/1/3
f 99/3/3 112/6/3 113/5/3
f 100/3/3 114/5/3 101/1/3
f 100/3/3 113/6/3 114/5/3
f 12/7/3 111/3/3 98/2/3
f 12/7/3 36/8/3 111/3/3
f 41/8/3 94/2/3 109/7/3
f 41/8/3 16/3/3 94/2/3
f 115/1/4 116/2/4 117/3/4
f 115/1/4 118/4/4 116/2/4
f 119/1/4 118/2/4 115/3/4
f 119/1/4 120/4/4 118/2/4
f 120/1/4 121/2/4 118/3/4
f 120/1/4 122/4/4 121/2/4
f 118/1/4 123/2/4 116/3/4
f 118/1/4 121/4/4 123/2/4
f 116/1/4 124/2/4 125/3/4
f 116/1/4 123/4/4 124/2/4
f 126/5/4 127/3/4 128/6/4
f 126/5/4 129/1/4 127/3/4
f 130/5/4 129/3/4 126/6/4
f 130/5/4 131/1/4 129/3/4
f 132/5/4 131/3/4 130/6/4
f 132/5/4 133/1/4 131/3/4
f 134/5/4 133/3/4 132/6/4
f 134/5/4 135/1/4 133/3/4
f 23/6/4 136/1/4 137/3/4
f 23/6/4 21/5/4 136/1/4
f 21/6/4 138/1/4 136/3/4
f 21/6/4 18/5/4 138/1/4
f 139/3/4 108/5/4 140/1/4
f 139/3/4 109/6/4 108/5/4
f 140/3/4 107/5/4 141/1/4
f 140/3/4 108/6/4 107/5/4
f 141/3/4 105/5/4 142/1/4
f 141/3/4 107/6/4 105/5/4
f 142/3/4 106/5/4 143/1/4
f 142/3/4 105/6/4 106/5/4
f 42/7/4 109/3/4 139/2/4
f 42/7/4 41/8/4 109/3/4
f 40/8/4 135/2/4 134/7/4
f 40/8/4 39/3/4 135/2/4
f 144/1/5 145/2/5 146/3/5
f 144/1/5 147/4/5 145/2/5
f 148/1/5 147/2/5 144/3/5
f 148/1/5 149/4/5 147/2/5
f 149/1/5 150/2/5 147/3/5
f 149/1/5 151/4/5 150/2/5
f 147/1/5 152/2/5 145/3/5
f 147/1/5 150/4/5 152/2/5
f 145/1/5 153/2/5 154/3/5
f 145/1/5 152/4/5 153/2/5
f 146/1/5 154/2/5 155/3/5
f 146/1/5 145/4/5 154/2/5
f 156/1/5 155/2/5 157/3/5
f 156/1/5 146/4/5 155/2/5
f 158/1/5 146/2/5 156/3/5
f 158/1/5 144/4/5 146/2/5
f 159/1/5 144/2/5 158/3/5
f 159/1/5 148/4/5 144/2/5
f 160/1/5 148/2/5 159/3/5
f 160/1/5 161/4/5 148/2/5
f 161/1/5 149/2/5 148/3/5
f 161/1/5 162/4/5 149/2/5
f 162/1/5 151/2/5 149/3/5
f 162/1/5 163/4/5 151/2/5
f 164/5/5 157/3/5 165/6/5
f 164/5/5 156/1/5 157/3/5
f 166/5/5 156/3/5 164/6/5
f 166/5/5 158/1/5 156/3/5
f 167/5/5 158/3/5 166/6/5
f 167/5/5 159/1/5 158/3/5
f 168/5/5 159/3/5 167/6/5
f 168/5/5 160/1/5 159/3/5
f 30/6/5 161/1/5 160/3/5
f 30/6/5 28/5/5 161/1/5
f 28/6/5 162/1/5 161/3/5
f 28/6/5 25/5/5 162/1/5
f 25/6/5 163/1/5 162/3/5
f 25/6/5 27/5/5 163/1/5
f 163/3/5 132/5/5 151/1/5
f 163/3/5 134/6/5 132/5/5
f 151/3/5 130/5/5 150/1/5
f 151/3/5 132/6/5 130/5/5
f 150/3/5 126/5/5 152/1/5
f 150/3/5 130/6/5 126/5/5
f 152/3/5 128/5/5 153/1/5
f 152/3/5 126/6/5 128/5/5
f 27/7/5 134/3/5 163/2/5
f 27/7/5 40/8/5 134/3/5
f 37/8/5 160/2/5 168/7/5
f 37/8/5 30/3/5 160/2/5
f 169/9/1 170/10/1 171/11/1
f 170/10/1 172/12/1 171/11/1
f 33/13/6 173/14/6 174/15/6
f 33/13/6 32/16/6 173/14/6
f 32/17/6 175/6/6 173/18/6
f 32/17/6 38/5/6 175/6/6
f 176/9/1 177/10/1 169/11/1
f 177/10/1 170/12/1 169/11/1
f 34/13/6 174/14/6 178/15/6
f 34/13/6 33/16/6 174/14/6
f 179/19/2 180/20/2 174/21/2
f 180/20/2 178/22/2 174/21/2
f 181/19/2 179/20/2 173/21/2
f 179/20/2 174/22/2 173/21/2
f 171/9/5 172/10/5 182/11/5
f 172/10/5 183/12/5 182/11/5
f 182/9/5 183/10/5 184/11/5
f 183/10/5 185/12/5 184/11/5
f 184/9/5 185/10/5 186/11/5
f 185/10/5 187/12/5 186/11/5
f 186/9/5 187/10/5 180/11/5
f 187/10/5 178/12/5 180/11/5
f 188/11/3 177/10/3 176/9/3
f 188/11/3 189/12/3 177/10/3
f 190/11/3 189/10/3 188/9/3
f 190/11/3 191/12/3 189/10/3
f 192/11/3 191/10/3 190/9/3
f 192/11/3 193/12/3 191/10/3
f 181/11/3 193/10/3 192/9/3
f 181/11/3 173/12/3 193/10/3
f 194/23/2 195/19/2 196/20/2
f 194/23/2 197/24/2 195/19/2
f 198/23/2 199/19/2 200/20/2
f 198/23/2 201/24/2 199/19/2
f 201/23/2 196/19/2 199/20/2
f 201/23/2 194/24/2 196/19/2
f 202/23/2 203/19/2 204/20/2
f 202/23/2 205/24/2 203/19/2
f 206/23/2 204/19/2 207/20/2
f 206/23/2 202/24/2 204/19/2
f 200/23/2 202/19/2 206/20/2
f 200/23/2 199/24/2 202/19/2
f 199/23/2 205/19/2 202/20/2
f 199/23/2 196/24/2 205/19/2
f 196/23/2 208/19/2 205/20/2
f 196/23/2 195/24/2 208/19/2
f 205/23/2 209/19/2 203/20/2
f 205/23/2 208/24/2 209/19/2
f 208/23/2 210/19/2 209/20/2
f 208/23/2 211/24/2 210/19/2
f 195/23/2 211/19/2 208/20/2
f 195/23/2 212/24/2 211/19/2
f 197/23/2 212/19/2 195/20/2
f 197/23/2 213/24/2 212/19/2
f 181/23/2 213/19/2 197/20/2
f 181/23/2 214/24/2 213/19/2
f 179/23/2 197/19/2 194/20/2
f 179/23/2 181/24/2 197/19/2
f 180/23/2 194/19/2 201/20/2
f 180/23/2 179/24/2 194/19/2
f 215/23/2 201/19/2 198/20/2
f 215/23/2 180/24/2 201/19/2
f 216/3/1 217/25/1 218/26/1
f 216/3/1 219/6/1 217/25/1
f 220/3/1 218/25/1 221/26/1
f 220/3/1 216/6/1 218/25/1
f 222/3/1 221/25/1 223/26/1
f 222/3/1 220/6/1 221/25/1
f 224/3/1 223/25/1 225/26/1
f 224/3/1 222/6/1 223/25/1
f 225/3/1 171/25/1 226/26/1
f 225/3/1 223/6/1 171/25/1
f 223/3/1 169/25/1 171/26/1
f 223/3/1 221/6/1 169/25/1
f 221/3/1 176/25/1 169/26/1
f 221/3/1 218/6/1 176/25/1
f 218/3/1 227/25/1 176/26/1
f 218/3/1 217/6/1 227/25/1
f 184/27/4 228/28/4 182/29/4
f 184/27/4 229/30/4 228/28/4
f 186/26/4 229/30/4 184/27/4
f 186/26/4 230/25/4 229/30/4
f 182/31/4 226/28/4 171/32/4
f 182/31/4 228/30/4 226/28/4
f 231/30/4 176/32/4 227/28/4
f 231/30/4 188/31/4 176/32/4
f 232/13/4 188/29/4 231/16/4
f 232/13/4 190/27/4 188/29/4
f 233/33/4 190/27/4 232/13/4
f 233/33/4 192/26/4 190/27/4
f 180/33/4 230/15/4 186/13/4
f 180/33/4 215/9/4 230/15/4
f 214/9/4 192/13/4 233/15/4
f 214/9/4 181/33/4 192/13/4
f 213/20/3 227/14/3 234/34/3
f 213/20/3 214/19/3 227/14/3
f 212/20/3 234/14/3 217/34/3
f 212/20/3 213/19/3 234/14/3
f 211/20/3 217/14/3 235/34/3
f 211/20/3 212/19/3 217/14/3
f 210/20/3 235/14/3 219/34/3
f 210/20/3 211/19/3 235/14/3
f 215/20/5 236/14/5 226/34/5
f 215/20/5 198/19/5 236/14/5
f 198/20/5 225/14/5 236/34/5
f 198/20/5 200/19/5 225/14/5
f 200/20/5 237/14/5 225/34/5
f 200/20/5 206/19/5 237/14/5
f 206/20/5 224/14/5 237/34/5
f 206/20/5 207/19/5 224/14/5
f 209/20/6 219/14/6 216/34/6
f 209/20/6 210/19/6 219/14/6
f 203/20/6 216/14/6 220/34/6
f 203/20/6 209/19/6 216/14/6
f 204/20/6 220/14/6 222/34/6
f 204/20/6 203/19/6 220/14/6
f 207/20/6 222/14/6 224/34/6
f 207/20/6 204/19/6 222/14/6
f 42/6/1 20/1/1 17/3/1
f 42/6/1 18/5/1 20/1/1
f 23/6/1 24/1/1 22/3/1
f 23/6/1 39/5/1 24/1/1
f 11/1/1 34/6/1 35/5/1
f 11/1/1 9/3/1 34/6/1
f 7/1/1 38/6/1 32/5/1
f 7/1/1 31/3/1 38/6/1
f 18/6/4 139/1/4 138/3/4
f 18/6/4 42/5/4 139/1/4
f 39/6/4 137/1/4 135/3/4
f 39/6/4 23/5/4 137/1/4
f 76/6/2 74/1/2 73/3/2
f 76/6/2 81/5/2 74/1/2
f 84/6/2 45/1/2 71/3/2
f 84/6/2 43/5/2 45/1/2
f 58/1/2 56/6/2 77/5/2
f 58/1/2 55/3/2 56/6/2
f 54/1/2 80/6/2 52/5/2
f 54/1/2 49/3/2 80/6/2
f 73/4/2 68/3/2 72/1/2
f 73/4/2 74/2/2 68/3/2
f 72/4/2 47/3/2 62/1/2
f 72/4/2 68/2/2 47/3/2
f 62/4/2 49/3/2 54/1/2
f 62/4/2 47/2/2 49/3/2
f 60/4/2 55/3/2 58/1/2
f 60/4/2 63/2/2 55/3/2
f 65/4/2 63/3/2 60/1/2
f 65/4/2 66/2/2 63/3/2
f 71/4/2 66/3/2 65/1/2
f 71/4/2 45/2/2 66/3/2
f 129/4/4 238/3/4 127/1/4
f 129/4/4 117/2/4 238/3/4
f 117/4/4 125/3/4 238/1/4
f 117/4/4 116/2/4 125/3/4
f 123/4/4 143/3/4 124/1/4
f 123/4/4 142/2/4 143/3/4
f 121/4/4 142/3/4 123/1/4
f 121/4/4 141/2/4 142/3/4
f 122/4/4 141/3/4 121/1/4
f 122/4/4 140/2/4 141/3/4
f 138/4/4 140/3/4 122/1/4
f 138/4/4 139/2/4 140/3/4
f 136/4/4 122/3/4 120/1/4
f 136/4/4 138/2/4 122/3/4
f 137/4/4 120/3/4 119/1/4
f 137/4/4 136/2/4 120/3/4
f 135/4/4 119/3/4 133/1/4
f 135/4/4 137/2/4 119/3/4
f 133/4/4 115/3/4 131/1/4
f 133/4/4 119/2/4 115/3/4
f 131/4/4 117/3/4 129/1/4
f 131/4/4 115/2/4 117/3/4
f 5/4/1 31/3/1 7/1/1
f 5/4/1 29/2/1 31/3/1
f 6/4/1 29/3/1 5/1/1
f 6/4/1 26/2/1 29/3/1
f 22/4/1 26/3/1 6/1/1
f 22/4/1 24/2/1 26/3/1
f 19/4/1 6/3/1 4/1/1
f 19/4/1 22/2/1 6/3/1
f 20/4/1 4/3/1 1/1/1
f 20/4/1 19/2/1 4/3/1
f 17/4/1 1/3/1 15/1/1
f 17/4/1 20/2/1 1/3/1
f 15/4/1 3/3/1 13/1/1
f 15/4/1 1/2/1 3/3/1
f 13/4/1 9/3/1 11/1/1
f 13/4/1 3/2/1 9/3/1
f 35/5/6 178/18/6 239/6/6
f 35/5/6 34/17/6 178/18/6
f 240/2/6 172/24/6 241/4/6
f 240/2/6 183/19/6 172/24/6
f 242/2/6 183/24/6 240/4/6
f 242/2/6 185/19/6 183/24/6
f 243/2/6 185/24/6 242/4/6
f 243/2/6 187/19/6 185/24/6
f 239/2/6 187/24/6 243/4/6
f 239/2/6 178/19/6 187/24/6
f 173/24/6 244/2/6 193/19/6
f 173/24/6 175/4/6 244/2/6
f 193/24/6 245/2/6 191/19/6
f 193/24/6 244/4/6 245/2/6
f 191/24/6 246/2/6 189/19/6
f 191/24/6 245/4/6 246/2/6
f 189/24/6 247/2/6 177/19/6
f 189/24/6 246/4/6 247/2/6
f 36/8/6 239/2/6 111/3/6
f 36/8/6 35/7/6 239/2/6
f 38/3/6 168/7/6 175/2/6
f 38/3/6 37/8/6 168/7/6
f 111/6/6 243/1/6 110/5/6
f 111/6/6 239/3/6 243/1/6
f 110/6/6 242/1/6 112/5/6
f 110/6/6 243/3/6 242/1/6
f 112/6/6 240/1/6 113/5/6
f 112/6/6 242/3/6 240/1/6
f 113/6/6 241/1/6 114/5/6
f 113/6/6 240/3/6 241/1/6
f 246/1/6 165/6/6 247/3/6
f 246/1/6 164/5/6 165/6/6
f 245/1/6 164/6/6 246/3/6
f 245/1/6 166/5/6 164/6/6
f 244/1/6 166/6/6 245/3/6
f 244/1/6 167/5/6 166/6/6
f 175/1/6 167/6/6 244/3/6
f 175/1/6 168/5/6 167/6/6
f 114/6/6 248/1/6 249/5/6
f 114/6/6 241/3/6 248/1/6
f 247/1/6 250/6/6 251/3/6
f 247/1/6 165/5/6 250/6/6
f 248/3/6 43/5/6 84/6/6
f 248/3/6 252/1/6 43/5/6
f 252/3/6 46/5/6 43/6/6
f 252/3/6 253/1/6 46/5/6
f 253/3/6 76/5/6 46/6/6
f 253/3/6 254/1/6 76/5/6
f 254/3/6 81/5/6 76/6/6
f 254/3/6 251/1/6 81/5/6
f 255/3/3 57/5/3 59/6/3
f 255/3/3 256/1/3 57/5/3
f 256/3/3 64/5/3 57/6/3
f 256/3/3 257/1/3 64/5/3
f 257/3/3 70/5/3 64/6/3
f 257/3/3 258/1/3 70/5/3
f 258/2/3 83/8/3 70/7/3
f 258/2/3 249/3/3 83/8/3
f 259/7/3 59/3/3 78/8/3
f 259/7/3 255/2/3 59/3/3
f 106/6/3 255/1/3 259/5/3
f 106/6/3 104/3/3 255/1/3
f 101/1/3 249/6/3 258/3/3
f 101/1/3 114/5/3 249/6/3
f 249/7/6 84/3/6 83/8/6
f 249/7/6 248/2/6 84/3/6
f 251/2/6 82/8/6 81/7/6
f 251/2/6 250/3/6 82/8/6
f 172/19/6 253/4/6 252/2/6
f 172/19/6 170/24/6 253/4/6
f 170/19/6 254/4/6 253/2/6
f 170/19/6 177/24/6 254/4/6
f 241/35/6 252/18/6 248/17/6
f 241/35/6 172/36/6 252/18/6
f 177/36/6 251/17/6 254/35/6
f 177/36/6 247/18/6 251/17/6
f 260/3/5 69/5/5 75/6/5
f 260/3/5 261/1/5 69/5/5
f 261/3/5 50/5/5 69/6/5
f 261/3/5 262/1/5 50/5/5
f 262/3/5 48/5/5 50/6/5
f 262/3/5 263/1/5 48/5/5
f 153/1/5 264/6/5 263/3/5
f 153/1/5 128/5/5 264/6/5
f 165/6/5 260/1/5 250/5/5
f 165/6/5 157/3/5 260/1/5
f 250/7/5 75/3/5 82/8/5
f 250/7/5 260/2/5 75/3/5
f 263/2/5 79/8/5 48/7/5
f 263/2/5 264/3/5 79/8/5
f 157/4/5 261/3/5 260/2/5
f 157/4/5 155/1/5 261/3/5
f 155/4/5 262/3/5 261/2/5
f 155/4/5 154/1/5 262/3/5
f 154/4/5 263/3/5 262/2/5
f 154/4/5 153/1/5 263/3/5
f 127/4/4 265/3/4 266/2/4
f 127/4/4 238/1/4 265/3/4
f 238/4/4 267/3/4 265/2/4
f 238/4/4 125/1/4 267/3/4
f 125/4/4 268/3/4 267/2/4
f 125/4/4 124/1/4 268/3/4
f 124/4/4 269/3/4 268/2/4
f 124/4/4 143/1/4 269/3/4
f 128/6/4 266/1/4 264/5/4
f 128/6/4 127/3/4 266/1/4
f 143/1/4 259/6/4 269/3/4
f 143/1/4 106/5/4 259/6/4
f 268/3/4 77/5/4 56/6/4
f 268/3/4 269/1/4 77/5/4
f 265/3/4 53/5/4 52/6/4
f 265/3/4 267/1/4 53/5/4
f 267/3/4 56/5/4 53/6/4
f 267/3/4 268/1/4 56/5/4
f 266/3/4 52/5/4 80/6/4
f 266/3/4 265/1/4 52/5/4
f 264/7/4 80/3/4 79/8/4
f 264/7/4 266/2/4 80/3/4
f 269/2/4 78/8/4 77/7/4
f 269/2/4 259/3/4 78/8/4
f 104/4/3 256/3/3 255/2/3
f 104/4/3 103/1/3 256/3/3
f 103/4/3 257/3/3 256/2/3
f 103/4/3 102/1/3 257/3/3
f 102/4/3 258/3/3 257/2/3
f 102/4/3 101/1/3 258/3/3
