mtllib material.mtl
o Default
v 0 0 1
v 0 0 0
v 2 0 1
v 2 0 0
v 2 8 1
v 2 8 0
v 0 8 1
v 0 8 0
v 0 6 1
v 0 6 0
v 0 4 1
v 0 4 0
v 0 2 1
v 0 2 0
v 2 6 1
v 2 6 0
v 2 4 1
v 2 4 0
v 2 2 1
v 2 2 0
vt 0.15000000596046448 0.6000000238418579
vt 0.20000000298023224 0.6000000238418579
vt 0.15000000596046448 0.4000000059604645
vt 0.20000000298023224 0.4000000059604645
vt 0.30000001192092896 0.4000000059604645
vt 0.30000001192092896 0.6000000238418579
vn 0 -1 0
vn 0 1 0
vn -1 0 0
vn 1 0 0
vn 0 0 -1
vn 0 0 1
g Elevator_Door
usemtl Elevator
f 1/1/1 2/2/1 3/3/1
f 2/2/1 4/4/1 3/3/1
f 5/1/2 6/2/2 7/3/2
f 6/2/2 8/4/2 7/3/2
f 7/1/3 8/2/3 9/3/3
f 8/2/3 10/4/3 9/3/3
f 9/1/3 10/2/3 11/3/3
f 10/2/3 12/4/3 11/3/3
f 11/1/3 12/2/3 13/3/3
f 12/2/3 14/4/3 13/3/3
f 13/1/3 14/2/3 1/3/3
f 14/2/3 2/4/3 1/3/3
f 15/3/4 6/2/4 5/1/4
f 15/3/4 16/4/4 6/2/4
f 17/3/4 16/2/4 15/1/4
f 17/3/4 18/4/4 16/2/4
f 19/3/4 18/2/4 17/1/4
f 19/3/4 20/4/4 18/2/4
f 3/3/4 20/2/4 19/1/4
f 3/3/4 4/4/4 20/2/4
f 16/5/5 8/2/5 6/6/5
f 16/5/5 10/4/5 8/2/5
f 18/5/5 10/2/5 16/6/5
f 18/5/5 12/4/5 10/2/5
f 20/5/5 12/2/5 18/6/5
f 20/5/5 14/4/5 12/2/5
f 4/5/5 14/2/5 20/6/5
f 4/5/5 2/4/5 14/2/5
f 9/5/6 5/2/6 7/6/6
f 9/5/6 15/4/6 5/2/6
f 11/5/6 15/2/6 9/6/6
f 11/5/6 17/4/6 15/2/6
f 13/5/6 17/2/6 11/6/6
f 13/5/6 19/4/6 17/2/6
f 1/5/6 19/2/6 13/6/6
f 1/5/6 3/4/6 19/2/6
