mtllib material.mtl
o Default
v -4 0.5 0
v 0 0.5 -4
v -4 0.5 -4
v 0 0.5 0
v -4 0 -4
v 0 0 -4
v -4 0 0
v 0 0 0
v -4 0.0625 -4
v 0 0.0625 0
v 0 0.0625 -4
v -4 0.0625 0
vt 1 0.6000000238418579
vt 0.800000011920929 1
vt 0.800000011920929 0.6000000238418579
vt 1 1
vt 0.800000011920929 0
vt 1 0.05000000074505806
vt 0.800000011920929 0.05000000074505806
vt 1 0
vt 0.800000011920929 0.20000000298023224
vt 1 0.20000000298023224
vn 0 1 0
vn 0 0 1
vn 0 0 -1
vn -1 0 0
vn 1 0 0
vn 0 -1 0
g Factory_Pallet
usemtl 0
f 1/1/1 2/2/1 3/3/1
f 1/1/1 4/4/1 2/2/1
f 5/5/2 2/6/2 3/7/2
f 5/5/2 6/8/2 2/6/2
f 3/7/3 2/6/3 5/5/3
f 2/6/3 6/8/3 5/5/3
f 5/5/4 1/6/4 3/7/4
f 5/5/4 7/8/4 1/6/4
f 3/7/5 1/6/5 5/5/5
f 1/6/5 7/8/5 5/5/5
f 8/5/3 1/6/3 4/7/3
f 8/5/3 7/8/3 1/6/3
f 4/7/2 1/6/2 8/5/2
f 1/6/2 7/8/2 8/5/2
f 4/7/4 2/6/4 8/5/4
f 2/6/4 6/8/4 8/5/4
f 8/5/5 2/6/5 4/7/5
f 8/5/5 6/8/5 2/6/5
f 6/9/6 7/1/6 5/3/6
f 6/9/6 8/10/6 7/1/6
f 9/9/1 10/1/1 11/3/1
f 9/9/1 12/10/1 10/1/1
