mtllib material.mtl
o Default
v -2 0 0
v 0 2 0
v -2 2 0
v 0 0 0
v -2 2 -0.125
v -2 3 0
v -2 3 -0.125
v -2 3.1875 -4
v -2 4 -3.875
v -2 4 -4
v -2 3.1875 -3.875
v 0 2 -4
v 0 4 -4
v -2 2 -4
v -2 0 -0.125
v -2 0 -4
v -2 2 -3.875
v -2 0 -3.875
v 0 0 -4
v -2 3 -3.875
v -2 3 -4
v -2 3 -2
v -2 3.1875 0
v -2 3.1875 -2
v -2 2.9375 -0.1875
v -2 3 -0.1875
v -2 2.9375 -0.125
v -2 3.1875 -0.125
v -2 4 0
v -2 4 -0.125
v -2 2.9375 -3.875
v -2 3 -3.8125
v -2 2.9375 -3.8125
v 0 3.1875 -2
v 0 3.1875 0
v 0 3.1875 -4
v 0 2.9375 -0.125
v 0 3 -0.1875
v 0 3 -0.125
v 0 2.9375 -0.1875
v 0 2 -3.875
v 0 3 -4
v 0 3 -3.875
v 0 4 -0.125
v 0 4 0
v 0 3.1875 -0.125
v 0 0 -3.875
v 0 2 -0.125
v 0 0 -0.125
v 0 3 0
v 0 3 -2
v 0 2.9375 -3.8125
v 0 3 -3.8125
v 0 2.9375 -3.875
v 0 3.1875 -3.875
v 0 4 -3.875
vt 0.6000000238418579 0
vt 0.699999988079071 0.20000000298023224
vt 0.6000000238418579 0.20000000298023224
vt 0.699999988079071 0
vt 0.7062499523162842 0.4000000059604645
vt 0.699999988079071 0.5
vt 0.7062499523162842 0.5
vt 0.699999988079071 0.4000000059604645
vt 0.699999988079071 0.518750011920929
vt 0.706250011920929 0.6000000238418579
vt 0.699999988079071 0.6000000238418579
vt 0.706250011920929 0.518750011920929
vt 0.6000000238418579 0.4000000059604645
vt 0.706250011920929 0.20000000298023224
vt 0.706250011920929 0.4000000059604645
vt 0.800000011920929 0.5
vt 0.800000011920929 0.518750011920929
vt 0.7093749642372131 0.4937500059604645
vt 0.7093749642372131 0.5
vt 0.7062499523162842 0.4937500059604645
vt 0.800000011920929 0
vt 0.800000011920929 0.20000000298023224
vn 0 0 1
vn -1 0 0
vn 0 0 -1
vn 0 1 0
vn 0 -1 0
vn 1 0 0
g Factory_Shelf_Bottom
usemtl 0
f 1/1/1 2/2/1 3/3/1
f 1/1/1 4/4/1 2/2/1
f 5/5/2 6/6/2 7/7/2
f 5/5/2 3/8/2 6/6/2
f 8/9/2 9/10/2 10/11/2
f 8/9/2 11/12/2 9/10/2
f 12/3/3 10/8/3 13/13/3
f 12/3/3 14/2/3 10/8/3
f 15/14/2 3/8/2 5/5/2
f 15/14/2 1/2/2 3/8/2
f 16/2/2 17/15/2 14/8/2
f 16/2/2 18/14/2 17/15/2
f 19/1/3 14/2/3 12/3/3
f 19/1/3 16/4/3 14/2/3
f 14/8/2 20/7/2 21/6/2
f 14/8/2 17/15/2 20/7/2
f 22/16/2 23/9/2 24/17/2
f 22/16/2 6/6/2 23/9/2
f 21/6/2 24/17/2 8/9/2
f 21/6/2 22/16/2 24/17/2
f 25/18/2 7/7/2 26/19/2
f 25/18/2 27/20/2 7/7/2
f 28/12/2 29/11/2 30/10/2
f 28/12/2 23/9/2 29/11/2
f 31/20/2 32/19/2 20/7/2
f 31/20/2 33/18/2 32/19/2
f 23/21/4 34/2/4 24/4/4
f 23/21/4 35/22/4 34/2/4
f 24/21/4 36/2/4 8/4/4
f 24/21/4 34/22/4 36/2/4
f 35/21/5 24/2/5 34/4/5
f 35/21/5 23/22/5 24/2/5
f 8/21/5 34/2/5 24/4/5
f 8/21/5 36/22/5 34/2/5
f 37/20/6 38/19/6 39/7/6
f 37/20/6 40/18/6 38/19/6
f 41/5/6 42/6/6 43/7/6
f 41/5/6 12/8/6 42/6/6
f 35/9/6 44/10/6 45/11/6
f 35/9/6 46/12/6 44/10/6
f 3/3/1 45/8/1 29/13/1
f 3/3/1 2/2/1 45/8/1
f 47/14/6 12/8/6 41/5/6
f 47/14/6 19/2/6 12/8/6
f 4/2/6 48/15/6 2/8/6
f 4/2/6 49/14/6 48/15/6
f 2/8/6 39/7/6 50/6/6
f 2/8/6 48/15/6 39/7/6
f 51/16/6 36/9/6 34/17/6
f 51/16/6 42/6/6 36/9/6
f 50/6/6 34/17/6 35/9/6
f 50/6/6 51/16/6 34/17/6
f 52/18/6 43/7/6 53/19/6
f 52/18/6 54/20/6 43/7/6
f 55/12/6 13/11/6 56/10/6
f 55/12/6 36/9/6 13/11/6
f 3/3/3 2/2/3 1/1/3
f 2/2/3 4/4/3 1/1/3
f 29/13/3 45/8/3 3/3/3
f 45/8/3 2/2/3 3/3/3
f 13/13/1 10/8/1 12/3/1
f 10/8/1 14/2/1 12/3/1
f 12/3/1 14/2/1 19/1/1
f 14/2/1 16/4/1 19/1/1
f 2/8/2 48/15/2 4/2/2
f 48/15/2 49/14/2 4/2/2
f 50/6/2 39/7/2 2/8/2
f 39/7/2 48/15/2 2/8/2
f 35/9/2 34/17/2 50/6/2
f 34/17/2 51/16/2 50/6/2
f 34/17/2 36/9/2 51/16/2
f 36/9/2 42/6/2 51/16/2
f 43/7/2 42/6/2 41/5/2
f 42/6/2 12/8/2 41/5/2
f 41/5/2 12/8/2 47/14/2
f 12/8/2 19/2/2 47/14/2
f 56/10/2 13/11/2 55/12/2
f 13/11/2 36/9/2 55/12/2
f 45/11/2 44/10/2 35/9/2
f 44/10/2 46/12/2 35/9/2
f 53/19/2 43/7/2 52/18/2
f 43/7/2 54/20/2 52/18/2
f 39/7/2 38/19/2 37/20/2
f 38/19/2 40/18/2 37/20/2
f 1/2/6 5/15/6 3/8/6
f 1/2/6 15/14/6 5/15/6
f 3/8/6 7/7/6 6/6/6
f 3/8/6 5/15/6 7/7/6
f 6/6/6 24/17/6 23/9/6
f 6/6/6 22/16/6 24/17/6
f 22/16/6 8/9/6 24/17/6
f 22/16/6 21/6/6 8/9/6
f 17/5/6 21/6/6 20/7/6
f 17/5/6 14/8/6 21/6/6
f 18/14/6 14/8/6 17/5/6
f 18/14/6 16/2/6 14/8/6
f 11/12/6 10/11/6 9/10/6
f 11/12/6 8/9/6 10/11/6
f 23/9/6 30/10/6 29/11/6
f 23/9/6 28/12/6 30/10/6
f 33/18/6 20/7/6 32/19/6
f 33/18/6 31/20/6 20/7/6
f 27/20/6 26/19/6 7/7/6
f 27/20/6 25/18/6 26/19/6
