mtllib material.mtl
o Default
v 1 0 0
v -1 2 0
v 1 2 0
v -1 0 0
v -1 4 0
v 1 4 0
v 0 0 1
v 0 2 -1
v 0 2 1
v 0 0 -1
v 0 4 -1
v 0 4 1
vt 0 0.6000000238418579
vt 0.10000000149011612 0.800000011920929
vt 0 0.800000011920929
vt 0.10000000149011612 0.6000000238418579
vn 0 0 -1
vn 0 0 1
vn 1 0 0
vn -1 0 0
g Factory_Chain
usemtl 0
f 1/1/1 2/2/1 3/3/1
f 1/1/1 4/4/1 2/2/1
f 3/1/1 5/2/1 6/3/1
f 3/1/1 2/4/1 5/2/1
f 4/1/2 3/2/2 2/3/2
f 4/1/2 1/4/2 3/2/2
f 2/1/2 6/2/2 5/3/2
f 2/1/2 3/4/2 6/2/2
f 7/1/3 8/2/3 9/3/3
f 7/1/3 10/4/3 8/2/3
f 9/1/3 11/2/3 12/3/3
f 9/1/3 8/4/3 11/2/3
f 10/1/4 9/2/4 8/3/4
f 10/1/4 7/4/4 9/2/4
f 8/1/4 12/2/4 11/3/4
f 8/1/4 9/4/4 12/2/4
