mtllib material.mtl
o Default
v -0.5 0 -0.5
v -0.5 1.625 0
v -0.5 1.625 -0.5
v -0.5 0 0
v -0.25 0 -0.5
v -0.25 1.5 -2
v -0.25 1.5 -0.5
v -0.25 0 -2
v 0 0 -0.5
v 0 1.625 -0.5
v 0 1.625 0
v 0 0 0
vt 0.800000011920929 0.6000000238418579
vt 0.7749999761581421 0.762499988079071
vt 0.800000011920929 0.762499988079071
vt 0.7749999761581421 0.6000000238418579
vt 0.7749999761581421 0.800000011920929
vt 0.699999988079071 0.949999988079071
vt 0.7749999761581421 0.949999988079071
vt 0.699999988079071 0.800000011920929
vt 0.7249999642372131 0.6000000238418579
vt 0.699999988079071 0.762499988079071
vt 0.7249999642372131 0.762499988079071
vt 0.699999988079071 0.6000000238418579
vt 0.800000011920929 0.800000011920929
vt 0.7249999642372131 0.800000011920929
vn -1 0 0
vn 1 0 0
vn 0 0 -1
vn 0 0 1
vn 0 -1 0
vn 0 1 0
g Factory_Railing_Corner
usemtl 0
f 1/1/1 2/2/1 3/3/1
f 1/1/1 4/4/1 2/2/1
f 5/5/2 6/6/2 7/7/2
f 5/5/2 8/8/2 6/6/2
f 9/9/3 3/10/3 10/11/3
f 9/9/3 1/12/3 3/10/3
f 4/9/4 11/10/4 2/11/4
f 4/9/4 12/12/4 11/10/4
f 4/3/5 9/5/5 12/13/5
f 4/3/5 1/2/5 9/5/5
f 11/11/6 3/8/6 2/14/6
f 11/11/6 10/10/6 3/8/6
f 12/1/2 10/2/2 11/3/2
f 12/1/2 9/4/2 10/2/2
f 7/7/1 6/6/1 5/5/1
f 6/6/1 8/8/1 5/5/1
