mtllib material.mtl
o Default
v 0 -2 -1
v 0 0 1
v 0 0 -1
v 0 -2 1
v 0 -4 -1
v 0 -4 1
v -1 -2 0
v 1 0 0
v -1 0 0
v 1 -2 0
v -1 -4 0
v 1 -4 0
v -2 -6 0
v -2 -6 1
v 0 -6 1
v 2 -6 1
v 0 -4 0
v 0 -6 -1
v -2 -6 -1
v 2 -6 0
v 2 -6 -1
vt 0 0.6000000238418579
vt 0.10000000149011612 0.800000011920929
vt 0 0.800000011920929
vt 0.10000000149011612 0.6000000238418579
vt 0.44999998807907104 0.800000011920929
vt 0.5 0.800000011920929
vt 0.5 1
vt 0.30000001192092896 0.800000011920929
vt 0.4000000059604645 0.800000011920929
vt 0.35000020265579224 1
vt 0.4000000059604645 1
vt 0.3500000238418579 1
vt 0.20000000298023224 0.800000011920929
vt 0.24999983608722687 1
vt 0.20000000298023224 1
vt 0.3999999761581421 1
vt 0.3999999761581421 0.9937499761581421
vt 0.2499997466802597 1
vt 0 1
vn -1 0 0
vn 1 0 0
vn 0 0 1
vn 0 0 -1
vn -0.89442719 0.4472136 0
vn 0 0.4472136 0.89442719
vn 0 0.4472136 -0.89442719
vn 0.89442719 0.4472136 0
vn 0 -1 0
g Factory_Light
usemtl 0
f 1/1/1 2/2/1 3/3/1
f 1/1/1 4/4/1 2/2/1
f 5/1/1 4/2/1 1/3/1
f 5/1/1 6/4/1 4/2/1
f 4/1/2 3/2/2 2/3/2
f 4/1/2 1/4/2 3/2/2
f 6/1/2 1/2/2 4/3/2
f 6/1/2 5/4/2 1/2/2
f 7/1/3 8/2/3 9/3/3
f 7/1/3 10/4/3 8/2/3
f 11/1/3 10/2/3 7/3/3
f 11/1/3 12/4/3 10/2/3
f 10/1/4 9/2/4 8/3/4
f 10/1/4 7/4/4 9/2/4
f 12/1/4 7/2/4 10/3/4
f 12/1/4 11/4/4 7/2/4
f 13/5/5 14/6/5 11/7/5
f 15/8/6 16/9/6 17/10/6
f 16/9/6 12/11/6 17/10/6
f 18/8/7 19/9/7 17/12/7
f 19/9/7 11/11/7 17/12/7
f 20/5/8 21/6/8 12/7/8
f 21/13/7 17/14/7 12/15/7
f 21/13/7 18/8/7 17/14/7
f 16/9/8 20/5/8 12/16/8
f 19/9/5 13/5/5 11/17/5
f 14/13/6 17/18/6 11/15/6
f 14/13/6 15/8/6 17/18/6
f 19/3/9 16/15/9 14/19/9
f 19/3/9 21/13/9 16/15/9
