mtllib material.mtl
o Default
v 0 6 0
v -5.875 6 0
v 0 0 0
v -5.875 0 0
v 0 6 -0.375
v 0 5.875 -0.375
v 0 5.875 0
v -0.875 6 0
v -0.875 0.25 0
v 0 0.25 0
v -5.875 1.3125 0
v 0 1.3125 0
v -0.375 0.25 -0.375
v -0.375 6 0
v -0.375 6 -0.375
v -0.375 0.25 0
v -0.875 6 -0.375
v -0.875 0.25 -0.375
v 0 0.25 -0.375
v 0 2.220446049250313e-16 -2
v -5.875 6 -2
v 0 6 -2
v -5.875 2.220446049250313e-16 -2
v 0 5.875 -1.625
v 0 6 -1.625
v 0 5.875 -2
v -0.875 0.25 -2
v -0.875 6 -2
v 0 0.25 -2
v 0 1.3125 -2
v -5.875 1.3125 -2
v -0.375 6 -1.625
v -0.375 6 -2
v -0.375 0.25 -1.625
v -0.375 0.25 -2
v -0.875 0.25 -1.625
v -0.875 6 -1.625
v 0 0.25 -1.625
v -5.25 1.2321429252624512 -2
v -5.125 1.8035714626312256 0
v -5.125 1.8035714626312256 -2
v -5.25 1.2321429252624512 0
v -4.875 2.375 0
v -4.875 2.375 -2
v -4.605769157409668 2.605769157409668 0
v -4.605769157409668 2.605769157409668 -2
v -5 0.375 -2
v -5 0.375 0
v -4.625 5.375 0
v -2.375 5.375 -2
v -4.625 5.375 -2
v -2.375 5.375 0
v -3 0.375 0
v -3 0.375 -2
v -1.578125 0.5078125 0
v -1.578125 0.5078125 -2
v -4.528846263885498 5.028846263885498 -2
v -4.528846263885498 5.028846263885498 0
v -1.5571428537368774 4.375 0
v -1.5571428537368774 4.375 -2
v -0.949999988079071 1.625 0
v -0.949999988079071 1.625 -2
v -0.375 1.4375 0
v -0.375 1.4375 -2
vt 0.0062500000931322575 0.6000000238418579
vt 0.30000001192092896 0.6000000238418579
vt 0.0062500000931322575 0
vt 0.30000001192092896 0
vt 0.3656249940395355 0.6000000238418579
vt 0.3843750059604645 0.6000000238418579
vt 0.3656249940395355 0.5875000357627869
vt 0.3843750059604645 0.5875000357627869
vt 0.34375 0.6000000238418579
vt 0.30000001192092896 0.02500000037252903
vt 0.34375 0.02500000037252903
vt 0.30000001192092896 0.13124999403953552
vt 0.0062500000931322575 0.13124999403953552
vt 0.3656249940395355 0.02500000037252903
vt 0.3843750059604645 0.02500000037252903
vt 0.5 0.11250000447034836
vt 0.6000000238418579 0.16250000894069672
vt 0.5 0.16250000894069672
vt 0.6000000238418579 0.11250000447034836
vt 0.6000000238418579 0.21250000596046448
vt 0.5 0.21250000596046448
vt 0.6000000238418579 0.23750001192092896
vt 0.5 0.23750001192092896
vt 0.5 0.03750000149011612
vt 0.6000000238418579 0.03750000149011612
vt 0.20000000298023224 0.6000000238418579
vt 0.10000000149011612 0.800000011920929
vt 0.10000000149011612 0.6000000238418579
vt 0.20000000298023224 0.800000011920929
vt 0.30000001192092896 0.800000011920929
vt 0.2562499940395355 0.800000011920929
vt 0.2562499940395355 0.6000000238418579
vt 0.5 0.5
vt 0.6000000238418579 0.5375000238418579
vt 0.5 0.5375000238418579
vt 0.6000000238418579 0.5
vt 0.4000000059604645 0.4375000298023224
vt 0.4000000059604645 0.5375000238418579
vt 0.5 0.4375000298023224
vt 0.4000000059604645 0.1875000149011612
vt 0.5 0.1875000149011612
vt 0.4000000059604645 0.03750000149011612
vn 0 0 1
vn 1 0 0
vn 0 0 -1
vn -1 0 0
vn 0 1 0
vn 0 -1 0
vn -0.97690001 0.21369689 0
vn -0.91615733 0.40081885 0
vn -0.65079115 0.75925679 0
vn -0.96000001 -0.27999998 0
vn 0.09300176 -0.99566594 0
vn -0.96351797 -0.26764366 0
vn 0.77408046 0.63308723 0
vn 0.97648453 0.2155875 0
vn 0.6114475 -0.791285 0
vn 0.31002061 0.95072984 0
vn -0.99949648 0.03172997 0
g Factory_Forklift
usemtl 0
f 1/1/1 2/2/1 3/3/1
f 2/2/1 4/4/1 3/3/1
f 5/5/2 1/6/2 6/7/2
f 1/6/2 7/8/2 6/7/2
f 8/2/3 1/9/3 9/10/3
f 1/9/3 10/11/3 9/10/3
f 3/3/3 11/12/3 12/13/3
f 3/3/3 4/4/3 11/12/3
f 13/14/4 14/6/4 15/5/4
f 13/14/4 16/15/4 14/6/4
f 17/2/3 5/9/3 18/10/3
f 5/9/3 19/11/3 18/10/3
f 6/7/2 7/8/2 19/14/2
f 7/8/2 10/15/2 19/14/2
f 15/5/5 14/6/5 5/7/5
f 14/6/5 1/8/5 5/7/5
f 16/5/6 13/6/6 10/7/6
f 13/6/6 19/8/6 10/7/6
f 20/3/3 21/2/3 22/1/3
f 20/3/3 23/4/3 21/2/3
f 24/7/2 22/6/2 25/5/2
f 24/7/2 26/8/2 22/6/2
f 27/10/1 22/9/1 28/2/1
f 27/10/1 29/11/1 22/9/1
f 30/13/1 31/12/1 20/3/1
f 31/12/1 23/4/1 20/3/1
f 32/5/4 33/6/4 34/14/4
f 33/6/4 35/15/4 34/14/4
f 36/10/1 25/9/1 37/2/1
f 36/10/1 38/11/1 25/9/1
f 38/14/2 26/8/2 24/7/2
f 38/14/2 29/15/2 26/8/2
f 25/7/5 33/6/5 32/5/5
f 25/7/5 22/8/5 33/6/5
f 29/7/6 34/6/6 35/5/6
f 29/7/6 38/8/6 34/6/6
f 39/16/7 40/17/7 41/18/7
f 39/16/7 42/19/7 40/17/7
f 41/18/8 43/20/8 44/21/8
f 41/18/8 40/17/8 43/20/8
f 44/21/9 45/22/9 46/23/9
f 44/21/9 43/20/9 45/22/9
f 47/24/10 42/19/10 39/16/10
f 47/24/10 48/25/10 42/19/10
f 49/26/5 50/27/5 51/28/5
f 49/26/5 52/29/5 50/27/5
f 47/26/6 53/30/6 48/29/6
f 47/26/6 54/2/6 53/30/6
f 54/26/11 55/31/11 53/29/11
f 54/26/11 56/32/11 55/31/11
f 57/33/12 49/34/12 51/35/12
f 57/33/12 58/36/12 49/34/12
f 37/2/3 25/9/3 36/10/3
f 25/9/3 38/11/3 36/10/3
f 59/37/13 50/35/13 52/38/13
f 59/37/13 60/39/13 50/35/13
f 61/40/14 60/39/14 59/37/14
f 61/40/14 62/41/14 60/39/14
f 56/32/15 63/30/15 55/31/15
f 56/32/15 64/2/15 63/30/15
f 63/42/16 62/41/16 61/40/16
f 63/42/16 64/24/16 62/41/16
f 46/23/17 58/36/17 57/33/17
f 46/23/17 45/22/17 58/36/17
