mtllib material.mtl
o Default
v 0 2 -4
v -2 4 -4
v 0 4 -4
v -2 2 -4
v -2 2 0
v 0 4 3.552713678800501e-15
v -2 4 3.552713678800501e-15
v 0 2 0
v -2 3.1875 3.552713678800501e-15
v -2 4 -0.125
v -2 3.1875 -0.125
v -2 3.1875 -3.875
v -2 4 -3.875
v -2 3.1875 -4
v -2 1.7763568394002505e-15 -3.875
v -2 2 -3.875
v -2 1.7763568394002505e-15 -4
v -2 3 -4
v -2 3 -3.875
v -2 3 -2
v -2 3.1875 -2
v -2 3 3.552713678800501e-15
v -2 3 -0.125
v -2 2 -0.125
v -2 3.9968028886505635e-15 0
v -2 3.9968028886505635e-15 -0.125
v 0 3 -0.125
v 0 3 -0.1875
v 0 2.9375 -0.125
v 0 2.9375 -0.1875
v 0 3 -3.8125
v 0 3 -3.875
v 0 2.9375 -3.8125
v 0 2.9375 -3.875
v 0 4 -0.125
v 0 3.1875 3.552713678800501e-15
v 0 3.1875 -0.125
v 0 4 -3.875
v 0 3.1875 -3.875
v 0 3.1875 -4
v 0 2 -3.875
v 0 1.7763568394002505e-15 -3.875
v 0 1.7763568394002505e-15 -4
v 0 3 -4
v 0 3.1875 -2
v 0 3 -2
v 0 3 3.552713678800501e-15
v 0 2 -0.125
v 0 3.9968028886505635e-15 0
v 0 3.9968028886505635e-15 -0.125
v -2 2.9375 -3.8125
v -2 3 -3.8125
v -2 2.9375 -3.875
v -2 2.9375 -0.125
v -2 3 -0.1875
v -2 2.9375 -0.1875
vt 0.6000000238418579 0.4000000059604645
vt 0.699999988079071 0.6000000238418579
vt 0.6000000238418579 0.6000000238418579
vt 0.699999988079071 0.4000000059604645
vt 0.699999988079071 0.518750011920929
vt 0.706250011920929 0.6000000238418579
vt 0.706250011920929 0.518750011920929
vt 0.706250011920929 0.20000000298023224
vt 0.706250011920929 0.4000000059604645
vt 0.699999988079071 0.20000000298023224
vt 0.699999988079071 0.5
vt 0.7062499523162842 0.5
vt 0.800000011920929 0.5
vt 0.800000011920929 0.518750011920929
vt 0.7062499523162842 0.4000000059604645
vt 0.7093749642372131 0.5
vt 0.7062499523162842 0.4937500059604645
vt 0.7093749642372131 0.4937500059604645
vt 0.800000011920929 0
vt 0.699999988079071 0
vt 0.800000011920929 0.20000000298023224
vt 0.6000000238418579 0.20000000298023224
vn 0 0 -1
vn 0 0 1
vn 1 0 0
vn -1 0 0
vn 0 -1 0
vn 0 1 0
g Factory_Shelf_Top
usemtl 0
f 1/1/1 2/2/1 3/3/1
f 1/1/1 4/4/1 2/2/1
f 5/1/2 6/2/2 7/3/2
f 5/1/2 8/4/2 6/2/2
f 9/5/3 10/6/3 7/2/3
f 9/5/3 11/7/3 10/6/3
f 12/7/3 2/2/3 13/6/3
f 12/7/3 14/5/3 2/2/3
f 15/8/3 4/4/3 16/9/3
f 15/8/3 17/10/3 4/4/3
f 16/9/3 18/11/3 19/12/3
f 16/9/3 4/4/3 18/11/3
f 20/13/3 14/5/3 21/14/3
f 20/13/3 18/11/3 14/5/3
f 22/11/3 21/14/3 9/5/3
f 22/11/3 20/13/3 21/14/3
f 5/4/3 23/12/3 22/11/3
f 5/4/3 24/15/3 23/12/3
f 25/10/3 24/15/3 5/4/3
f 25/10/3 26/8/3 24/15/3
f 27/12/4 28/16/4 29/17/4
f 28/16/4 30/18/4 29/17/4
f 31/16/4 32/12/4 33/18/4
f 32/12/4 34/17/4 33/18/4
f 6/2/4 35/6/4 36/5/4
f 35/6/4 37/7/4 36/5/4
f 38/6/4 3/2/4 39/7/4
f 3/2/4 40/5/4 39/7/4
f 41/9/4 1/4/4 42/8/4
f 1/4/4 43/10/4 42/8/4
f 32/12/4 44/11/4 41/9/4
f 44/11/4 1/4/4 41/9/4
f 45/14/4 40/5/4 46/13/4
f 40/5/4 44/11/4 46/13/4
f 36/5/4 45/14/4 47/11/4
f 45/14/4 46/13/4 47/11/4
f 47/11/4 27/12/4 8/4/4
f 27/12/4 48/15/4 8/4/4
f 8/4/4 48/15/4 49/10/4
f 48/15/4 50/8/4 49/10/4
f 14/5/4 13/6/4 2/2/4
f 14/5/4 12/7/4 13/6/4
f 8/4/1 7/3/1 6/2/1
f 8/4/1 5/1/1 7/3/1
f 51/18/3 19/12/3 52/16/3
f 51/18/3 53/17/3 19/12/3
f 24/15/4 22/11/4 23/12/4
f 24/15/4 5/4/4 22/11/4
f 39/7/3 3/2/3 38/6/3
f 39/7/3 40/5/3 3/2/3
f 33/18/3 32/12/3 31/16/3
f 33/18/3 34/17/3 32/12/3
f 47/11/3 45/14/3 36/5/3
f 47/11/3 46/13/3 45/14/3
f 46/13/3 40/5/3 45/14/3
f 46/13/3 44/11/3 40/5/3
f 8/4/3 27/12/3 47/11/3
f 8/4/3 48/15/3 27/12/3
f 49/10/3 48/15/3 8/4/3
f 49/10/3 50/8/3 48/15/3
f 42/8/3 1/4/3 41/9/3
f 42/8/3 43/10/3 1/4/3
f 54/17/3 55/16/3 23/12/3
f 54/17/3 56/18/3 55/16/3
f 36/5/3 35/6/3 6/2/3
f 36/5/3 37/7/3 35/6/3
f 41/9/3 44/11/3 32/12/3
f 41/9/3 1/4/3 44/11/3
f 29/17/3 28/16/3 27/12/3
f 29/17/3 30/18/3 28/16/3
f 14/19/5 45/10/5 21/20/5
f 14/19/5 40/21/5 45/10/5
f 36/19/5 21/10/5 45/20/5
f 36/19/5 9/21/5 21/10/5
f 21/19/6 40/10/6 14/20/6
f 21/19/6 45/21/6 40/10/6
f 9/19/6 45/10/6 21/20/6
f 9/19/6 36/21/6 45/10/6
f 53/17/4 52/16/4 19/12/4
f 53/17/4 51/18/4 52/16/4
f 11/7/4 7/2/4 10/6/4
f 11/7/4 9/5/4 7/2/4
f 56/18/4 23/12/4 55/16/4
f 56/18/4 54/17/4 23/12/4
f 18/11/4 21/14/4 14/5/4
f 18/11/4 20/13/4 21/14/4
f 20/13/4 9/5/4 21/14/4
f 20/13/4 22/11/4 9/5/4
f 4/4/4 19/12/4 18/11/4
f 4/4/4 16/15/4 19/12/4
f 25/22/2 8/4/2 5/1/2
f 25/22/2 49/10/2 8/4/2
f 17/10/4 16/15/4 4/4/4
f 17/10/4 15/8/4 16/15/4
f 26/8/4 5/4/4 24/15/4
f 26/8/4 25/10/4 5/4/4
f 4/4/2 3/3/2 2/2/2
f 4/4/2 1/1/2 3/3/2
f 49/10/1 5/1/1 8/4/1
f 49/10/1 25/22/1 5/1/1
f 43/22/1 4/4/1 1/1/1
f 43/22/1 17/10/1 4/4/1
f 17/10/2 1/1/2 4/4/2
f 17/10/2 43/22/2 1/1/2
