mtllib material.mtl
o Default
v 1.9375 1.40625 -0.9115166664123535
v 1.875 1.40625 -1.5625
v 1.875 1.75 -0.8102527856826782
v 1.84375 1.78125 -1.5625
v 2.375 1.15625 -0.9838483333587646
v 0 1.15625 -0.9838483333587646
v 2.375 -0.0625 -0.9838483333587646
v 0 -0.0625 -0.9838483333587646
v 0.3125 1.5625 -2.2568819522857666
v 0.375 1.5625 -1.5625
v 0.4375 2.125 -2.4304776191711426
v 0.5 2.125 -1.5625
v 0.4375 2.125 -0.6945224404335022
v 0.3125 1.5625 -0.8681181073188782
v 0.09375 1 -2.1411516666412354
v 0.15625 1 -1.5625
v 0.09375 1 -0.9838483333587646
v 0.125 0.4375 -2.1411516666412354
v 0.1875 0.4375 -1.5625
v 0.125 0.4375 -0.9838483333587646
v 0.65625 0.0625 -2.1411516666412354
v 0.65625 0.0625 -1.5625
v 0.65625 0.0625 -0.9838483333587646
v 1.4375 -0.03125 -2.1411516666412354
v 1.4375 -0.03125 -1.5625
v 1.4375 -0.03125 -0.9838483333587646
v 1.8125 0.125 -2.1411516666412354
v 1.75 0.125 -1.5625
v 1.8125 0.125 -0.9838483333587646
v 2.1875 0.3125 -2.1411516666412354
v 2.125 0.3125 -1.5625
v 2.1875 0.3125 -0.9838483333587646
v 2.3125 0.5 -2.1411516666412354
v 2.25 0.5 -1.5625
v 2.3125 0.5 -0.9838483333587646
v 2.3125 0.71875 -2.1411516666412354
v 2.25 0.71875 -1.5625
v 2.3125 0.71875 -0.9838483333587646
v 2.1875 0.90625 -2.1411516666412354
v 2.125 0.90625 -1.5625
v 2.1875 0.90625 -0.9838483333587646
v 2.03125 1.15625 -2.1411516666412354
v 1.96875 1.15625 -1.5625
v 2.03125 1.15625 -0.9838483333587646
v 1.9375 1.40625 -2.213482141494751
v 1.875 1.75 -2.314746856689453
v 2.375 2.125 -0.694522500038147
v 0 2.125 -0.694522500038147
v 2.375 -0.0625 -2.1411516666412354
v 0 1.15625 -2.1411516666412354
v 2.375 1.15625 -2.1411516666412354
v 0 -0.0625 -2.1411516666412354
v 0 2.125 -2.4304776191711426
v 2.375 2.125 -2.4304776191711426
v -0.625 2.375 -2.3125
v -1 3.125 -0.8125
v -1 3.125 -2.3125
v -0.625 2.375 -0.8125
v -0.875 3.875 -0.1875
v -1 3.875 -0.8125
v -0.875 3.125 -0.1875
v -0.875 3.125 -3.0625
v -1 3.875 -2.3125
v -1 3.875 -3.0625
v -0.5 2.375 -0.1875
v -0.125 2.375 -3.5625
v -0.5 3.125 -3.5625
v -0.5 2.375 -3.0625
v -0.65625 4.375 -0.8125
v -0.65625 4.375 -2.3125
v -0.53125 4.375 -0.1875
v -0.0625 4.875 -0.8125
v 0.0625 4.875 -0.1875
v -0.65625 4.375 -3.0625
v 0.1875 4.875 0.1875
v -0.28125 4.375 0.1875
v -0.5 3.875 0.1875
v -0.5 3.125 0.1875
v -0.125 2.375 0.1875
v -0.5 3.875 -3.5625
v -0.28125 4.375 -3.5625
v 0.1875 4.875 -3.5625
v 0.0625 4.875 -3.0625
v -0.0625 4.875 -2.3125
v 0.875 5.125 -3.0625
v 0.875 5.125 -3.5625
v 1.875 5.125 -3.0625
v 1.875 5.125 -3.5625
v 0.875 5.125 -2.3125
v 1.875 5.125 -2.3125
v 1.875 5.125 -0.8125
v 0.875 5.125 -0.8125
v 0.875 5.125 -0.1875
v 1.875 5.125 -0.1875
v 0.875 5.125 0.1875
v 1.875 5.125 0.1875
v 2.625 4.75 0.1875
v 2.625 4.75 -0.1875
v 3.375 4.125 0.1875
v 3.375 4.125 -0.1875
v 4.0625 3.6875 0.1875
v 4.0625 3.6875 -0.1875
v 4.6875 3.375 0.1875
v 4.6875 3.375 -0.1875
v 2.625 4.75 -0.8125
v 3.375 4.125 -0.8125
v 4.0625 3.6875 -0.8125
v 4.6875 3.375 -0.8125
v 2.625 4.75 -2.3125
v 2.625 4.75 -3.0625
v 2.625 4.75 -3.5625
v 3.375 4.125 -2.3125
v 3.375 4.125 -3.0625
v 3.375 4.125 -3.5625
v 4.0625 3.6875 -2.3125
v 4.0625 3.6875 -3.0625
v 4.0625 3.6875 -3.5625
v 4.6875 3.375 -2.3125
v 4.6875 3.375 -3.0625
v 4.6875 3.375 -3.5625
v 4.875 3.125 0.1875
v 4.875 3.125 -0.1875
v 4.875 3.125 -2.3125
v 5.0625 2.375 -0.8125
v 5.0625 2.375 -2.3125
v 4.875 3.125 -0.8125
v 4.875 3.125 -3.0625
v 4.875 3.125 -3.5625
v 5.0625 2.375 -3.0625
v 5.0625 2.375 -3.5625
v 4.75 1.875 -0.1875
v 4.375 1.625 0.1875
v 4.375 1.625 -0.1875
v 4.75 1.875 0.1875
v 4.75 1.875 -0.8125
v 4.75 1.875 -2.3125
v 4.75 1.875 -3.0625
v 4.375 1.625 -2.3125
v 4.375 1.625 -3.0625
v 4.75 1.875 -3.5625
v 4.375 1.625 -0.8125
v 2.75 1.625 0.1875
v 2.75 1.625 -0.1875
v 2.75 1.625 -0.8125
v 2.75 1.625 -2.3125
v 2.75 1.625 -3.0625
v 4.375 1.625 -3.5625
v 2.75 1.625 -3.5625
v 1 1.875 0.1875
v 1 1.875 -0.1875
v 1 1.875 -0.8125
v 1 1.875 -2.3125
v 1 1.875 -3.0625
v 1 1.875 -3.5625
v 5.0625 2.375 0.1875
v 5.0625 2.375 -0.1875
v 3.0625 0.625 -3.5625
v 7.0625 4.625 -4.0625
v 3.0625 4.625 -3.5625
v 7.0625 0.625 -4.0625
v -0.8125 5.375 -3.5625
v 5.1875 5.375 -3.5625
v -0.8125 1.375 -3.5625
v 5.1875 1.375 -3.5625
v -0.8125 5.375 -3.6875
v -0.8125 1.375 -3.6875
v 3.0625 4.625 0.125
v 7.0625 4.625 0.625
v 3.0625 0.625 0.125
v 7.0625 0.625 0.625
v -0.8125 1.375 0.125
v 5.1875 5.375 0.125
v -0.8125 5.375 0.125
v 5.1875 1.375 0.125
v -0.8125 1.375 0.25
v -0.8125 5.375 0.25
vt 0.9999999403953552 0.5
vt 0.949999988079071 0.5
vt 0.9999999403953552 0.6000000238418579
vt 0.949999988079071 0.6000000238418579
vt 0.9593750238418579 0.809374988079071
vt 0.840624988079071 0.809374988079071
vt 0.9593750238418579 0.6875
vt 0.840624988079071 0.6875
vt 1 0.5
vt 0.9499999284744263 0.6000000238418579
vt 1 0.6000000238418579
vt 0.9499999284744263 0.5
vt 0.8999999165534973 0.6000000238418579
vt 0.8999999165534973 0.5
vt 0.8999999761581421 0.5
vt 0.8999999761581421 0.6000000238418579
vt 0.949999988079071 0.4000000059604645
vt 0.8999999165534973 0.4000000059604645
vt 0.9499999284744263 0.4000000059604645
vt 0.8999999761581421 0.4000000059604645
vt 0.9593750238418579 0.90625
vt 0.840624988079071 0.90625
vt 0.10000000149011612 0
vt 0.20000000298023224 0.10000000149011612
vt 0.10000000149011612 0.10000000149011612
vt 0.20000000298023224 0
vt 0.25 0.20000000298023224
vt 0.20000000298023224 0.20000000298023224
vt 0.25 0.10000000149011612
vt 0.05000000074505806 0.10000000149011612
vt 0.10000000149011612 0.20000000298023224
vt 0.05000000074505806 0.20000000298023224
vt 0.25 0
vt 0 0
vt 0 0.10000000149011612
vt 0.05000000074505806 0
vt 0.20000000298023224 0.30000001192092896
vt 0.10000000149011612 0.30000001192092896
vt 0.25 0.30000001192092896
vt 0.20000000298023224 0.4000000059604645
vt 0.25 0.4000000059604645
vt 0.05000000074505806 0.30000001192092896
vt 0.30000001192092896 0.4000000059604645
vt 0.30000001192092896 0.30000001192092896
vt 0.30000001192092896 0.20000000298023224
vt 0.30000001192092896 0.10000000149011612
vt 0.30000001192092896 0
vt 0 0.20000000298023224
vt 0 0.30000001192092896
vt 0 0.4000000059604645
vt 0.05000000074505806 0.4000000059604645
vt 0.10000000149011612 0.4000000059604645
vt 0.3000005781650543 0.20000000298023224
vt 0.3500007688999176 0.30000001192092896
vt 0.3000005781650543 0.30000001192092896
vt 0.3500007688999176 0.20000000298023224
vt 0.3500007688999176 0.4000000059604645
vt 0.3000005781650543 0.4000000059604645
vt 0.40000101923942566 0.30000001192092896
vt 0.40000101923942566 0.20000000298023224
vt 0.40000101923942566 0.4000000059604645
vt 0.5000011324882507 0.4000000059604645
vt 0.5000011324882507 0.30000001192092896
vt 0.5000011324882507 0.20000000298023224
vt 0.5500001907348633 0.20000000298023224
vt 0.5500001907348633 0.30000001192092896
vt 0.5500001907348633 0.4000000059604645
vt 0.5999992489814758 0.30000001192092896
vt 0.5999992489814758 0.4000000059604645
vt 0.5999992489814758 0.20000000298023224
vt 0.550000011920929 0.20000000298023224
vt 0.6000000238418579 0.4000000059604645
vt 0.550000011920929 0.4000000059604645
vt 0.6000000238418579 0.20000000298023224
vt 0.5 0.20000000298023224
vt 0.5 0.4000000059604645
vt 0.4000000059604645 0.20000000298023224
vt 0.4000000059604645 0.4000000059604645
vt 0.3500000238418579 0.20000000298023224
vt 0.3500000238418579 0.4000000059604645
vt 0.10000000894069672 0.20000000298023224
vt 0.10000000894069672 0.4000000059604645
vt 0.05000002309679985 0.20000000298023224
vt 0.05000002309679985 0.4000000059604645
vt 1.1920929132713809e-8 0.20000000298023224
vt 1.1920929132713809e-8 0.4000000059604645
vt 0.6000000238418579 0.30000001192092896
vt 0.550000011920929 0.30000001192092896
vt 0.4000000059604645 0.30000001192092896
vt 0.5 0.30000001192092896
vt 0.40000003576278687 0.30000001192092896
vt 0.3500000238418579 0.30000001192092896
vt 0.40000003576278687 0.20000000298023224
vt 0.3999999761581421 0.20000000298023224
vt 0.3999999761581421 0.4000000059604645
vt 0.40000003576278687 0.4000000059604645
vt 0.6000000238418579 0.6000000238418579
vt 0.800000011920929 1
vt 0.6000000238418579 1
vt 0.800000011920929 0.6000000238418579
vt 0.20000000298023224 1
vt 0.5 1
vt 0.20000000298023224 0.6000000238418579
vt 0.5 0.6000000238418579
vt 0.8999999761581421 0.20000000298023224
vn 0.97434234 0.20471026 -0.09354525
vn 0.99582896 0.08298575 -0.03792151
vn 0 0 1
vn -0.96646489 0.24161625 0.08698967
vn -0.97378432 0.21639652 0.07011877
vn -0.97378432 0.21639652 -0.07011877
vn -0.96646489 0.24161625 -0.08698968
vn -0.927318 0.36062367 0.10015935
vn -0.9228917 0.37599291 0.08306773
vn -0.9228917 0.3759929 -0.08306774
vn -0.927318 0.36062367 -0.10015935
vn -0.99270436 -0.05515024 0.10722171
vn -0.99270436 -0.05515024 -0.10722171
vn -0.62469505 -0.78086881 0
vn -0.57556776 -0.81538766 0.06216691
vn -0.57556776 -0.81538766 -0.06216691
vn -0.11914522 -0.99287684 0
vn 0.44669278 -0.89338557 0.04824716
vn 0.38461538 -0.92307692 0
vn 0.38428394 -0.92228145 -0.0415064
vn 0.4472136 -0.89442719 0
vn 0.44669278 -0.89338557 -0.04824716
vn 0.82871047 -0.55247365 0.08950878
vn 0.82871047 -0.55247365 -0.08950878
vn 0.9942175 0 0.10738515
vn 0.9942175 0 -0.10738515
vn 0.82871047 0.55247365 0.08950878
vn 0.82871047 0.55247365 -0.08950878
vn 0.84446356 0.52778972 0.09121027
vn 0.84446356 0.52778972 -0.09121027
vn 0.9315773 0.34934149 0.1006194
vn 0.92392903 0.37213777 0.0887053
vn 0.92392891 0.3721381 -0.08870512
vn 0.9315773 0.34934149 -0.1006194
vn 0.99582896 0.08298575 0.03792153
vn 0.97434227 0.20471052 0.09354541
vn 0 -0.28616878 0.95817923
vn 0 0 -1
vn 0 -0.28616889 -0.95817919
vn -0.89442719 -0.4472136 0
vn -0.98058068 0 0.19611614
vn -0.98639392 -0.16439899 0
vn -0.98639392 0 -0.16439899
vn -1 0 0
vn -0.88045091 -0.44022545 0.17609018
vn -0.74278135 -0.37139068 -0.55708601
vn -0.82404192 0.56652882 0
vn -0.63885619 0.75864173 0.12777124
vn -0.62978244 0.74786665 0.20992748
vn -0.65605857 0.61505491 0.43737238
vn -0.70710678 0 0.70710678
vn -0.66666667 -0.33333333 0.66666667
vn -0.67552053 0.29554023 -0.67552053
vn -0.70097273 0.48191875 -0.52572955
vn -0.70710678 0 -0.70710678
vn -0.79298232 -0.13216372 -0.59473674
vn -0.88465174 -0.44232587 -0.14744196
vn -0.64 0.6 -0.48
vn -0.5653322 0.81266504 -0.14133305
vn -0.56849537 0.81721209 -0.09474923
vn -0.64413575 0.7649112 0
vn -0.81307363 0.55898812 0.16261473
vn -0.72223335 0.49653543 0.4814889
vn -0.67552053 0.29554023 0.67552053
vn -0.34174306 0.93979342 0
vn -0.29329423 0.95320625 -0.07332356
vn 0 1 0
vn -0.29408585 0.95577901 0
vn -0.25742539 0.96534522 -0.04290423
vn -0.25766265 0.96623494 0
vn -0.25732121 0.96495452 0.05146424
vn -0.29268293 0.95121951 0.09756098
vn 0.4472136 0.89442719 0
vn 0.6401844 0.76822128 0
vn 0.53687549 0.84366149 0
vn 0.8 0.6 0
vn 0.9701425 0.24253563 0
vn 0.5547002 -0.83205029 0
vn 0.8479983 -0.52999894 0
vn 0 -1 0
vn -0.14142136 -0.98994949 0
vn -0.30151134 -0.90453403 0.30151134
vn -0.40613847 -0.91381155 0
vn -0.29408585 -0.95577901 0
vn -0.31578947 -0.94736842 -0.05263158
vn -0.38851434 -0.87415728 -0.29138576
vn -0.31622777 -0.9486833 0
vn -0.29357848 -0.95413005 0.0587157
vn 0.12403473 0 0.99227788
vn 0.02082881 0 -0.99978306
vn -0.12403473 0 -0.99227788
vn 0.12403473 0 -0.99227788
vn 0.02082881 0 0.99978306
vn -0.12403473 0 0.99227788
g LabelMaker_Full
usemtl 0
f 1/1/1 2/2/1 3/3/1
f 2/2/2 4/4/2 3/3/2
f 5/5/3 6/6/3 7/7/3
f 6/6/3 8/8/3 7/7/3
f 9/1/4 10/2/4 11/3/4
f 10/2/5 12/4/5 11/3/5
f 10/9/6 13/10/6 12/11/6
f 10/9/7 14/12/7 13/10/7
f 10/2/8 15/13/8 16/4/8
f 10/2/9 9/14/9 15/13/9
f 14/12/10 10/15/10 17/10/10
f 10/15/11 16/16/11 17/10/11
f 16/17/12 18/14/12 19/2/12
f 16/17/12 15/18/12 18/14/12
f 17/19/13 16/20/13 20/12/13
f 16/20/13 19/15/13 20/12/13
f 19/2/14 21/13/14 22/4/14
f 19/2/15 18/14/15 21/13/15
f 20/12/16 19/15/16 23/10/16
f 19/15/14 22/16/14 23/10/14
f 22/9/17 24/10/17 25/11/17
f 22/9/17 21/12/17 24/10/17
f 23/1/17 25/4/17 26/3/17
f 23/1/17 22/2/17 25/4/17
f 25/9/18 27/10/18 28/11/18
f 25/9/19 24/12/19 27/10/19
f 26/1/20 28/4/20 29/3/20
f 26/1/21 25/2/21 28/4/21
f 28/9/18 30/10/18 31/11/18
f 28/9/18 27/12/18 30/10/18
f 29/1/22 31/4/22 32/3/22
f 29/1/22 28/2/22 31/4/22
f 31/2/23 33/13/23 34/4/23
f 31/2/23 30/14/23 33/13/23
f 32/12/24 34/16/24 35/10/24
f 32/12/24 31/15/24 34/16/24
f 34/17/25 36/14/25 37/2/25
f 34/17/25 33/18/25 36/14/25
f 35/19/26 37/15/26 38/12/26
f 35/19/26 34/20/26 37/15/26
f 37/17/27 39/14/27 40/2/27
f 37/17/27 36/18/27 39/14/27
f 38/19/28 40/15/28 41/12/28
f 38/19/28 37/20/28 40/15/28
f 40/2/29 42/13/29 43/4/29
f 40/2/29 39/14/29 42/13/29
f 41/12/30 43/16/30 44/10/30
f 41/12/30 40/15/30 43/16/30
f 43/2/31 42/14/31 2/4/31
f 42/14/32 45/13/32 2/4/32
f 44/12/33 2/16/33 1/10/33
f 44/12/34 43/15/34 2/16/34
f 2/9/35 46/10/35 4/11/35
f 2/9/36 45/12/36 46/10/36
f 47/21/37 48/22/37 5/5/37
f 48/22/37 6/6/37 5/5/37
f 49/7/38 50/6/38 51/5/38
f 49/7/38 52/8/38 50/6/38
f 51/5/39 53/22/39 54/21/39
f 51/5/39 50/6/39 53/22/39
f 55/23/40 56/24/40 57/25/40
f 55/23/40 58/26/40 56/24/40
f 56/24/41 59/27/41 60/28/41
f 56/24/41 61/29/41 59/27/41
f 62/30/42 63/31/42 64/32/42
f 62/30/43 57/25/43 63/31/43
f 57/25/44 60/28/44 63/31/44
f 57/25/44 56/24/44 60/28/44
f 58/26/45 61/29/45 56/24/45
f 58/26/45 65/33/45 61/29/45
f 66/34/46 62/30/46 67/35/46
f 66/34/46 68/36/46 62/30/46
f 63/31/47 69/37/47 70/38/47
f 63/31/47 60/28/47 69/37/47
f 69/37/48 71/39/48 72/40/48
f 71/39/48 73/41/48 72/40/48
f 64/32/47 70/38/47 74/42/47
f 64/32/47 63/31/47 70/38/47
f 71/39/49 75/43/49 73/41/49
f 71/39/50 76/44/50 75/43/50
f 61/29/51 77/45/51 59/27/51
f 61/29/51 78/46/51 77/45/51
f 65/33/52 78/46/52 61/29/52
f 65/33/52 79/47/52 78/46/52
f 80/48/53 64/32/53 81/49/53
f 64/32/54 74/42/54 81/49/54
f 67/35/55 64/32/55 80/48/55
f 67/35/56 62/30/56 64/32/56
f 68/36/57 57/25/57 62/30/57
f 68/36/57 55/23/57 57/25/57
f 81/49/58 74/42/58 82/50/58
f 74/42/59 83/51/59 82/50/59
f 74/42/60 84/52/60 83/51/60
f 74/42/61 70/38/61 84/52/61
f 70/38/61 72/40/61 84/52/61
f 70/38/61 69/37/61 72/40/61
f 60/28/62 59/27/62 69/37/62
f 59/27/62 71/39/62 69/37/62
f 59/27/63 76/44/63 71/39/63
f 59/27/64 77/45/64 76/44/64
f 82/53/65 85/54/65 86/55/65
f 82/53/66 83/56/66 85/54/66
f 86/55/67 87/57/67 88/58/67
f 86/55/67 85/54/67 87/57/67
f 83/56/68 89/59/68 85/54/68
f 83/56/69 84/60/69 89/59/69
f 85/54/67 90/61/67 87/57/67
f 85/54/67 89/59/67 90/61/67
f 89/59/67 91/62/67 90/61/67
f 89/59/67 92/63/67 91/62/67
f 84/60/70 92/63/70 89/59/70
f 84/60/70 72/64/70 92/63/70
f 72/64/71 73/65/71 92/63/71
f 73/65/68 93/66/68 92/63/68
f 92/63/67 93/66/67 91/62/67
f 93/66/67 94/67/67 91/62/67
f 93/66/67 95/68/67 94/67/67
f 95/68/67 96/69/67 94/67/67
f 73/65/72 75/70/72 93/66/72
f 75/70/65 95/68/65 93/66/65
f 94/71/73 97/72/73 98/73/73
f 94/71/73 96/74/73 97/72/73
f 98/71/74 99/72/74 100/73/74
f 98/71/74 97/74/74 99/72/74
f 100/71/75 101/72/75 102/73/75
f 100/71/75 99/74/75 101/72/75
f 102/27/73 103/43/73 104/41/73
f 102/27/73 101/45/73 103/43/73
f 91/75/73 98/73/73 105/76/73
f 91/75/73 94/71/73 98/73/73
f 105/75/74 100/73/74 106/76/74
f 105/75/74 98/71/74 100/73/74
f 106/75/75 102/73/75 107/76/75
f 106/75/75 100/71/75 102/73/75
f 107/28/73 104/41/73 108/40/73
f 107/28/73 102/27/73 104/41/73
f 90/77/73 105/76/73 109/78/73
f 90/77/73 91/75/73 105/76/73
f 87/79/73 109/78/73 110/80/73
f 87/79/73 90/77/73 109/78/73
f 88/45/73 110/80/73 111/43/73
f 88/45/73 87/79/73 110/80/73
f 109/77/74 106/76/74 112/78/74
f 109/77/74 105/75/74 106/76/74
f 110/79/74 112/78/74 113/80/74
f 110/79/74 109/77/74 112/78/74
f 111/45/74 113/80/74 114/43/74
f 111/45/74 110/79/74 113/80/74
f 112/77/75 107/76/75 115/78/75
f 112/77/75 106/75/75 107/76/75
f 113/79/75 115/78/75 116/80/75
f 113/79/75 112/77/75 115/78/75
f 114/45/75 116/80/75 117/43/75
f 114/45/75 113/79/75 116/80/75
f 115/81/73 108/40/73 118/82/73
f 115/81/73 107/28/73 108/40/73
f 116/83/73 118/82/73 119/84/73
f 116/83/73 115/81/73 118/82/73
f 117/85/73 119/84/73 120/86/73
f 117/85/73 116/83/73 119/84/73
f 104/71/76 121/87/76 122/88/76
f 104/71/76 103/74/76 121/87/76
f 123/89/77 124/76/77 125/78/77
f 123/89/77 126/90/77 124/76/77
f 119/79/76 123/91/76 127/92/76
f 119/79/76 118/93/76 123/91/76
f 128/44/77 129/80/77 130/43/77
f 128/44/77 127/92/77 129/80/77
f 108/75/76 122/88/76 126/90/76
f 108/75/76 104/71/76 122/88/76
f 131/88/78 132/72/78 133/73/78
f 131/88/78 134/87/78 132/72/78
f 125/94/79 135/76/79 136/95/79
f 125/94/79 124/75/79 135/76/79
f 137/92/78 138/96/78 139/80/78
f 137/92/78 136/91/78 138/96/78
f 130/45/79 137/92/79 140/44/79
f 130/45/79 129/79/79 137/92/79
f 135/90/78 133/73/78 141/76/78
f 135/90/78 131/88/78 133/73/78
f 133/71/80 142/72/80 143/73/80
f 133/71/80 132/74/80 142/72/80
f 138/77/80 144/76/80 145/78/80
f 138/77/80 141/75/80 144/76/80
f 139/79/80 145/78/80 146/80/80
f 139/79/80 138/77/80 145/78/80
f 147/45/80 146/80/80 148/43/80
f 147/45/80 139/79/80 146/80/80
f 141/75/80 143/73/80 144/76/80
f 141/75/80 133/71/80 143/73/80
f 143/71/81 149/72/81 150/73/81
f 143/71/81 142/74/81 149/72/81
f 145/77/81 151/76/81 152/78/81
f 145/77/81 144/75/81 151/76/81
f 146/79/81 152/78/81 153/80/81
f 146/79/81 145/77/81 152/78/81
f 148/45/81 153/80/81 154/43/81
f 148/45/81 146/79/81 153/80/81
f 144/75/81 150/73/81 151/76/81
f 144/75/81 143/71/81 150/73/81
f 150/71/82 79/72/82 65/73/82
f 150/71/83 149/74/83 79/72/83
f 152/77/84 58/76/84 55/78/84
f 152/77/84 151/75/84 58/76/84
f 153/79/85 55/96/85 68/80/85
f 153/79/84 152/77/84 55/96/84
f 154/45/86 68/80/86 66/43/86
f 154/45/87 153/79/87 68/80/87
f 151/75/88 65/73/88 58/76/88
f 151/75/87 150/71/87 65/73/87
f 122/88/77 155/72/77 156/73/77
f 122/88/77 121/87/77 155/72/77
f 126/90/77 156/73/77 124/76/77
f 126/90/77 122/88/77 156/73/77
f 118/93/76 126/90/76 123/91/76
f 118/93/76 108/75/76 126/90/76
f 127/92/77 125/78/77 129/80/77
f 127/92/77 123/89/77 125/78/77
f 120/45/76 127/92/76 128/44/76
f 120/45/76 119/79/76 127/92/76
f 140/44/78 139/80/78 147/43/78
f 140/44/78 137/92/78 139/80/78
f 129/79/79 136/91/79 137/92/79
f 129/79/79 125/93/79 136/91/79
f 136/91/78 141/76/78 138/96/78
f 136/91/78 135/90/78 141/76/78
f 124/75/79 131/88/79 135/90/79
f 124/75/79 156/71/79 131/88/79
f 156/71/79 134/87/79 131/88/79
f 156/71/79 155/74/79 134/87/79
f 157/97/89 158/98/89 159/99/89
f 157/97/89 160/100/89 158/98/89
f 161/101/38 162/102/38 163/103/38
f 162/102/38 164/104/38 163/103/38
f 165/97/90 162/16/90 166/74/90
f 162/16/90 164/105/90 166/74/90
f 159/99/91 158/98/91 157/97/91
f 158/98/91 160/100/91 157/97/91
f 167/99/92 168/98/92 169/97/92
f 168/98/92 170/100/92 169/97/92
f 171/103/3 172/102/3 173/101/3
f 171/103/3 174/104/3 172/102/3
f 175/74/93 172/16/93 176/97/93
f 175/74/93 174/105/93 172/16/93
f 169/97/94 168/98/94 167/99/94
f 169/97/94 170/100/94 168/98/94
