mtllib material.mtl
o Default
v -0.25 -0.25 -3
v 0.25 -0.25 -3.5
v 0.25 -0.25 -3
v -0.25 -0.25 -3.5
v 0.25 0.25 -3.5
v 0.25 0.25 -3
v -0.25 0.25 -3.5
v -0.25 0.25 -3
v 0.25 -0.25 3
v -0.25 -0.25 3.5
v -0.25 -0.25 3
v 0.25 -0.25 3.5
v -0.25 0.25 3
v 0.25 0.25 3.5
v 0.25 0.25 3
v -0.25 0.25 3.5
v -0.75 -0.75 1
v 0 -1 3
v -0.75 -0.75 3
v 0 -1 1
v -0.75 -0.75 -1
v 0 -1 -1
v -0.75 -0.75 -3
v 0 -1 -3
v 1 0 -1
v 0.75 0.75 -3
v 0.75 0.75 -1
v 1 0 -3
v 1 0 1
v 0.75 0.75 1
v 0.75 -0.75 3
v 1 0 3
v 0.75 -0.75 1
v -1 0 1
v -0.75 0.75 3
v -0.75 0.75 1
v -1 0 3
v -1 0 -1
v -0.75 0.75 -1
v -1 0 -3
v 0 1 1
v 0 1 3
v 0 1 -1
v 0 1 -3
v -0.75 0.75 -3
v 0 0 3
v 0.75 0.75 3
v 0.75 -0.75 -3
v 0 0 -3
v 0.75 -0.75 -1
v -0.375 -0.3680555522441864 3.5625
v 0 0.006944417953491211 3.5625
v -0.5 0.006944417953491211 3.5625
v 0 -0.4930555522441864 3.5625
v -0.375 0.3819444179534912 3.5625
v 0 0.5069444179534912 3.5625
v 0.375 0.3819444179534912 3.5625
v 0.5 0.006944417953491211 3.5625
v 0.375 -0.3680555522441864 3.5625
v -0.5 0.006944447755813599 -3.5625
v 0 0.006944447755813599 -3.5625
v -0.375 -0.3680555820465088 -3.5625
v 0 -0.4930555820465088 -3.5625
v -0.375 0.3819444179534912 -3.5625
v 0 0.5069444179534912 -3.5625
v 0.375 0.3819444179534912 -3.5625
v 0.5 0.006944447755813599 -3.5625
v 0.375 -0.3680555820465088 -3.5625
vt 1 0.4000000059604645
vt 0.949999988079071 0.5
vt 0.949999988079071 0.4000000059604645
vt 1 0.5
vt 0.9750000238418579 0.5
vt 0.9750000238418579 0.4000000059604645
vt 0.949999988079071 0.6000000238418579
vt 0.9750000238418579 0.6000000238418579
vt 1 0.6000000238418579
vt 0.9000000357627869 0.4000000059604645
vt 0.9250000715255737 0.5
vt 0.9000000357627869 0.5
vt 0.9250000715255737 0.4000000059604645
vt 0.9500000476837158 0.5
vt 0.9500000476837158 0.4000000059604645
vt 0.30000001192092896 0.5
vt 0.30000001192092896 0.6000000238418579
vt 0.25 0.5
vt 0.25 0.6000000238418579
vt 0.30000001192092896 0.4000000059604645
vt 0.25 0.4000000059604645
vt 0.20000000298023224 0.6000000238418579
vt 0.20000000298023224 0.5
vt 0.20000000298023224 0.4000000059604645
vn 0 -1 0
vn 1 0 0
vn 0 1 0
vn 0 0 -1
vn -1 0 0
vn 0 0 1
vn -0.31622777 -0.9486833 0
vn 0.9486833 0.31622777 0
vn 0.9486833 -0.31622777 0
vn -0.9486833 0.31622777 0
vn -0.9486833 -0.31622777 0
vn -0.31622777 0.9486833 0
vn 0.31622777 0.9486833 0
vn 0.31622777 -0.9486833 0
g LabelMaker_Roller
usemtl 0
f 1/1/1 2/2/1 3/3/1
f 1/1/1 4/4/1 2/2/1
f 3/1/2 5/2/2 6/3/2
f 3/1/2 2/4/2 5/2/2
f 6/1/3 7/2/3 8/3/3
f 6/1/3 5/4/3 7/2/3
f 2/1/4 7/2/4 5/3/4
f 2/1/4 4/4/4 7/2/4
f 4/1/5 8/2/5 7/3/5
f 4/1/5 1/4/5 8/2/5
f 9/1/1 10/2/1 11/3/1
f 9/1/1 12/4/1 10/2/1
f 13/1/3 14/2/3 15/3/3
f 13/1/3 16/4/3 14/2/3
f 12/1/2 15/2/2 14/3/2
f 12/1/2 9/4/2 15/2/2
f 10/1/6 14/2/6 16/3/6
f 10/1/6 12/4/6 14/2/6
f 11/1/5 16/2/5 13/3/5
f 11/1/5 10/4/5 16/2/5
f 17/1/7 18/5/7 19/4/7
f 17/1/7 20/6/7 18/5/7
f 21/1/7 20/5/7 17/4/7
f 21/1/7 22/6/7 20/5/7
f 23/1/7 22/5/7 21/4/7
f 23/1/7 24/6/7 22/5/7
f 25/5/8 26/7/8 27/2/8
f 25/5/8 28/8/8 26/7/8
f 29/5/8 27/7/8 30/2/8
f 29/5/8 25/8/8 27/7/8
f 31/4/9 29/8/9 32/5/9
f 31/4/9 33/9/9 29/8/9
f 34/5/10 35/9/10 36/4/10
f 34/5/10 37/8/10 35/9/10
f 38/5/10 36/9/10 39/4/10
f 38/5/10 34/8/10 36/9/10
f 23/2/11 38/8/11 40/5/11
f 23/2/11 21/7/11 38/8/11
f 35/10/12 41/11/12 36/12/12
f 35/10/12 42/13/12 41/11/12
f 41/13/13 27/14/13 43/11/13
f 41/13/13 30/15/13 27/14/13
f 39/10/12 44/11/12 45/12/12
f 39/10/12 43/13/12 44/11/12
f 18/16/6 31/17/6 46/18/6
f 31/17/6 32/19/6 46/18/6
f 19/20/6 46/18/6 37/21/6
f 19/20/6 18/16/6 46/18/6
f 46/18/6 47/22/6 42/23/6
f 46/18/6 32/19/6 47/22/6
f 48/20/4 49/18/4 28/21/4
f 48/20/4 24/16/4 49/18/4
f 49/18/4 45/22/4 44/23/4
f 49/18/4 40/19/4 45/22/4
f 24/16/4 23/17/4 49/18/4
f 23/17/4 40/19/4 49/18/4
f 28/21/4 49/18/4 26/24/4
f 49/18/4 44/23/4 26/24/4
f 37/21/6 46/18/6 35/24/6
f 46/18/6 42/23/6 35/24/6
f 32/5/8 30/7/8 47/2/8
f 32/5/8 29/8/8 30/7/8
f 33/4/9 25/8/9 29/5/9
f 33/4/9 50/9/9 25/8/9
f 50/4/9 28/8/9 25/5/9
f 50/4/9 48/9/9 28/8/9
f 42/13/13 30/14/13 41/11/13
f 42/13/13 47/15/13 30/14/13
f 36/10/12 43/11/12 39/12/12
f 36/10/12 41/13/12 43/11/12
f 43/13/13 26/14/13 44/11/13
f 43/13/13 27/15/13 26/14/13
f 20/6/14 31/2/14 18/5/14
f 20/6/14 33/3/14 31/2/14
f 22/6/14 33/2/14 20/5/14
f 22/6/14 50/3/14 33/2/14
f 24/6/14 50/2/14 22/5/14
f 24/6/14 48/3/14 50/2/14
f 17/2/11 37/8/11 34/5/11
f 17/2/11 19/7/11 37/8/11
f 21/2/11 34/8/11 38/5/11
f 21/2/11 17/7/11 34/8/11
f 40/5/10 39/9/10 45/4/10
f 40/5/10 38/8/10 39/9/10
f 51/20/6 52/18/6 53/21/6
f 51/20/6 54/16/6 52/18/6
f 53/21/6 52/18/6 55/24/6
f 52/18/6 56/23/6 55/24/6
f 52/18/6 57/22/6 56/23/6
f 52/18/6 58/19/6 57/22/6
f 54/16/6 59/17/6 52/18/6
f 59/17/6 58/19/6 52/18/6
f 53/21/4 52/18/4 51/20/4
f 52/18/4 54/16/4 51/20/4
f 55/24/4 52/18/4 53/21/4
f 55/24/4 56/23/4 52/18/4
f 56/23/4 57/22/4 52/18/4
f 57/22/4 58/19/4 52/18/4
f 52/18/4 59/17/4 54/16/4
f 52/18/4 58/19/4 59/17/4
f 60/21/4 61/18/4 62/20/4
f 61/18/4 63/16/4 62/20/4
f 64/24/4 61/18/4 60/21/4
f 64/24/4 65/23/4 61/18/4
f 65/23/4 66/22/4 61/18/4
f 66/22/4 67/19/4 61/18/4
f 61/18/4 68/17/4 63/16/4
f 61/18/4 67/19/4 68/17/4
f 62/20/6 61/18/6 60/21/6
f 62/20/6 63/16/6 61/18/6
f 63/16/6 68/17/6 61/18/6
f 68/17/6 67/19/6 61/18/6
f 61/18/6 66/22/6 65/23/6
f 61/18/6 67/19/6 66/22/6
f 60/21/6 61/18/6 64/24/6
f 61/18/6 65/23/6 64/24/6
